<?xml version="1.0" encoding="UTF-8"?>
<svg xmlns="http://www.w3.org/2000/svg" xmlns:xlink="http://www.w3.org/1999/xlink" width="330px" height="240px" viewBox="0 0 330 240" version="1.1">
<defs>
<filter id="alpha" filterUnits="objectBoundingBox" x="0%" y="0%" width="100%" height="100%">
  <feColorMatrix type="matrix" in="SourceGraphic" values="0 0 0 0 1 0 0 0 0 1 0 0 0 0 1 0 0 0 1 0"/>
</filter>
<mask id="mask0">
  <g filter="url(#alpha)">
<rect x="0" y="0" width="330" height="240" style="fill:rgb(0%,0%,0%);fill-opacity:0.2;stroke:none;"/>
  </g>
</mask>
<clipPath id="clip1">
  <rect x="0" y="0" width="330" height="240"/>
</clipPath>
<g id="surface5" clip-path="url(#clip1)">
<path style=" stroke:none;fill-rule:nonzero;fill:rgb(0%,0%,0%);fill-opacity:1;" d="M 228.101562 193.609375 C 228.097656 194.34375 228.089844 195.371094 228.058594 196.644531 C 228.054688 196.820312 228.042969 197 228.039062 197.183594 C 228 198.96875 227.9375 201.171875 227.847656 203.660156 C 227.84375 203.808594 227.839844 203.957031 227.832031 204.109375 C 227.714844 207.144531 227.527344 210.683594 227.210938 216.285156 C 226.617188 226.628906 225.585938 217.707031 224.550781 221.335938 C 221.675781 219.566406 218.523438 217.710938 215.152344 215.804688 C 214.542969 215.460938 213.929688 215.117188 213.308594 214.769531 C 206.566406 211.003906 199.035156 207.0625 191.175781 203.15625 C 190.863281 203 190.550781 202.84375 190.238281 202.695312 C 172.230469 193.785156 152.574219 185.121094 136.648438 179.339844 C 133.574219 178.222656 130.636719 177.21875 127.878906 176.332031 C 122.066406 174.472656 117.042969 173.171875 113.179688 172.609375 C 109.152344 172.023438 106.371094 172.230469 105.25 173.445312 C 105.207031 172.589844 105.164062 171.769531 105.117188 170.984375 C 105.101562 170.726562 105.085938 170.46875 105.070312 170.21875 C 105.09375 170.148438 105.128906 170.082031 105.160156 170.015625 C 105.164062 170.007812 105.167969 169.996094 105.171875 169.988281 C 105.179688 169.964844 105.191406 169.945312 105.203125 169.925781 C 105.214844 169.898438 105.230469 169.875 105.246094 169.847656 C 105.257812 169.820312 105.273438 169.792969 105.292969 169.765625 C 105.332031 169.707031 105.375 169.644531 105.421875 169.585938 C 105.453125 169.539062 105.492188 169.5 105.53125 169.457031 C 105.542969 169.4375 105.558594 169.421875 105.574219 169.402344 C 105.59375 169.386719 105.609375 169.367188 105.628906 169.34375 C 105.640625 169.332031 105.652344 169.320312 105.664062 169.3125 C 105.695312 169.273438 105.734375 169.238281 105.773438 169.207031 C 105.921875 169.070312 106.082031 168.941406 106.25 168.828125 C 106.308594 168.792969 106.371094 168.753906 106.429688 168.710938 C 106.855469 168.457031 107.296875 168.246094 107.761719 168.074219 C 107.917969 168.015625 108.078125 167.960938 108.25 167.902344 C 108.3125 167.886719 108.371094 167.863281 108.433594 167.84375 C 108.527344 167.8125 108.621094 167.785156 108.714844 167.761719 C 109.195312 167.621094 109.710938 167.5 110.269531 167.386719 C 110.4375 167.351562 110.613281 167.320312 110.789062 167.289062 C 110.929688 167.265625 111.078125 167.238281 111.222656 167.214844 C 112.46875 167.015625 113.882812 166.871094 115.441406 166.773438 C 115.589844 166.765625 115.734375 166.757812 115.882812 166.75 C 116.054688 166.738281 116.226562 166.730469 116.402344 166.722656 C 116.550781 166.714844 116.699219 166.710938 116.851562 166.707031 C 116.996094 166.699219 117.148438 166.695312 117.304688 166.691406 C 117.726562 166.675781 118.164062 166.664062 118.609375 166.65625 C 119.875 166.636719 121.207031 166.644531 122.609375 166.671875 C 123.257812 166.683594 123.921875 166.707031 124.601562 166.734375 C 124.640625 166.734375 124.6875 166.738281 124.730469 166.738281 C 125.320312 166.757812 125.921875 166.785156 126.527344 166.816406 C 126.957031 166.835938 127.386719 166.855469 127.820312 166.882812 C 128.226562 166.90625 128.636719 166.933594 129.054688 166.960938 C 129.375 166.980469 129.699219 167.003906 130.027344 167.023438 C 130.300781 167.046875 130.578125 167.066406 130.855469 167.082031 C 131.1875 167.109375 131.519531 167.132812 131.855469 167.160156 C 132.316406 167.195312 132.777344 167.234375 133.246094 167.273438 C 133.710938 167.316406 134.183594 167.355469 134.660156 167.398438 C 135.132812 167.441406 135.609375 167.488281 136.089844 167.53125 C 136.140625 167.535156 136.1875 167.542969 136.230469 167.546875 C 136.667969 167.589844 137.105469 167.632812 137.542969 167.679688 C 139.984375 167.925781 142.496094 168.21875 145.078125 168.546875 C 146.621094 168.746094 148.183594 168.957031 149.765625 169.183594 C 152.167969 169.523438 154.609375 169.890625 157.066406 170.285156 C 159.527344 170.683594 162.003906 171.105469 164.492188 171.546875 C 165.121094 171.660156 165.75 171.773438 166.382812 171.890625 C 167.15625 172.035156 167.925781 172.179688 168.699219 172.328125 C 169.1875 172.421875 169.671875 172.511719 170.160156 172.609375 C 170.738281 172.722656 171.320312 172.835938 171.898438 172.949219 C 175.710938 173.703125 179.5 174.511719 183.199219 175.355469 C 183.808594 175.492188 184.414062 175.636719 185.019531 175.773438 C 186.226562 176.054688 187.421875 176.339844 188.609375 176.628906 C 188.933594 176.710938 189.257812 176.789062 189.582031 176.867188 C 190.390625 177.070312 191.191406 177.269531 191.984375 177.472656 L 191.984375 177.476562 C 192.03125 177.484375 192.074219 177.496094 192.121094 177.511719 C 192.699219 177.65625 193.273438 177.804688 193.84375 177.957031 C 195.191406 178.308594 196.515625 178.664062 197.816406 179.019531 C 198.679688 179.265625 199.535156 179.503906 200.378906 179.746094 C 201.640625 180.117188 202.878906 180.484375 204.082031 180.855469 C 204.378906 180.945312 204.675781 181.039062 204.96875 181.128906 C 205.851562 181.402344 206.714844 181.679688 207.5625 181.953125 C 208.230469 182.171875 208.886719 182.394531 209.53125 182.617188 C 210.179688 182.839844 210.8125 183.0625 211.429688 183.285156 C 211.835938 183.425781 212.226562 183.574219 212.617188 183.714844 C 213.1875 183.925781 213.742188 184.136719 214.285156 184.351562 C 214.453125 184.414062 214.617188 184.480469 214.78125 184.542969 C 215.089844 184.660156 215.386719 184.78125 215.679688 184.902344 C 215.875 184.980469 216.070312 185.058594 216.261719 185.144531 C 216.449219 185.21875 216.644531 185.296875 216.828125 185.378906 C 217.015625 185.453125 217.203125 185.53125 217.386719 185.617188 C 217.539062 185.679688 217.691406 185.746094 217.839844 185.8125 C 218.136719 185.945312 218.433594 186.074219 218.722656 186.207031 C 218.867188 186.277344 219.007812 186.339844 219.152344 186.40625 L 219.476562 186.558594 C 219.523438 186.582031 219.570312 186.601562 219.617188 186.625 C 219.972656 186.792969 220.316406 186.960938 220.652344 187.128906 C 220.964844 187.285156 221.273438 187.445312 221.566406 187.601562 C 221.914062 187.785156 222.246094 187.964844 222.5625 188.152344 C 222.628906 188.183594 222.691406 188.222656 222.753906 188.257812 C 222.96875 188.378906 223.171875 188.503906 223.378906 188.625 C 223.78125 188.871094 224.160156 189.117188 224.519531 189.359375 C 224.871094 189.601562 225.199219 189.84375 225.503906 190.082031 C 225.503906 190.085938 225.503906 190.085938 225.507812 190.085938 C 225.65625 190.203125 225.796875 190.320312 225.929688 190.433594 C 226.148438 190.621094 226.351562 190.804688 226.535156 190.988281 C 226.597656 191.042969 226.65625 191.105469 226.710938 191.167969 C 226.734375 191.1875 226.757812 191.210938 226.777344 191.234375 C 226.867188 191.332031 226.953125 191.429688 227.039062 191.523438 C 227.140625 191.640625 227.230469 191.757812 227.320312 191.875 C 227.359375 191.9375 227.40625 191.996094 227.445312 192.054688 C 227.496094 192.125 227.546875 192.199219 227.585938 192.269531 C 227.625 192.328125 227.660156 192.394531 227.691406 192.453125 C 227.78125 192.601562 227.855469 192.761719 227.917969 192.925781 C 227.964844 193.039062 228.003906 193.152344 228.03125 193.269531 C 228.0625 193.382812 228.085938 193.496094 228.101562 193.609375 Z M 228.101562 193.609375 "/>
</g>
</defs>
<g id="surface1">
<path style=" stroke:none;fill-rule:nonzero;fill:rgb(94.901961%,94.901961%,94.901961%);fill-opacity:1;" d="M 203.375 31.125 C 203.375 37.3125 198.363281 42.328125 192.179688 42.328125 C 185.996094 42.328125 180.984375 37.3125 180.984375 31.125 C 180.984375 24.9375 185.996094 19.921875 192.179688 19.921875 C 198.363281 19.921875 203.375 24.9375 203.375 31.125 Z M 203.375 31.125 "/>
<path style=" stroke:none;fill-rule:nonzero;fill:rgb(94.901961%,94.901961%,94.901961%);fill-opacity:1;" d="M 279.03125 208.59375 C 295.671875 195.910156 303.621094 174.597656 298.644531 154.265625 C 298.523438 153.761719 298.390625 153.257812 298.253906 152.753906 C 294.953125 140.6875 286.792969 129.214844 274.898438 125.359375 C 264.910156 122.121094 254.007812 124.613281 243.589844 123.324219 C 223.132812 120.796875 207.273438 104.234375 196.117188 86.898438 C 184.957031 69.558594 176.382812 50.148438 161.554688 35.824219 C 137.117188 12.210938 97.25 7.128906 66.949219 22.496094 C 36.648438 37.867188 17.34375 71.964844 18.167969 105.949219 C 18.992188 139.933594 39.152344 172.425781 68.433594 189.664062 C 79.191406 195.996094 91.628906 200.484375 104.011719 198.914062 C 114.753906 197.550781 124.515625 191.773438 135.207031 190.058594 C 152.019531 187.363281 168.722656 194.96875 183.261719 203.832031 C 197.800781 212.695312 211.847656 223.199219 228.371094 227.308594 C 244.414062 231.296875 264.289062 219.832031 279.03125 208.59375 Z M 279.03125 208.59375 "/>
<path style=" stroke:none;fill-rule:nonzero;fill:rgb(24.705882%,23.921569%,33.72549%);fill-opacity:1;" d="M 255.121094 23.210938 C 254.757812 22.96875 254.386719 22.738281 254.023438 22.503906 C 243.476562 15.753906 232.175781 10.269531 220.347656 6.167969 L 217.605469 44.023438 L 200.21875 44.023438 L 200.21875 0.640625 C 199.125 0.414062 198.023438 0.203125 196.921875 0 L 196.921875 44.023438 L 176.261719 44.023438 C 152.578125 44.023438 133.378906 24.8125 133.378906 1.113281 C 132.269531 1.351562 131.171875 1.605469 130.074219 1.878906 L 130.074219 44.023438 L 113.246094 44.023438 L 110.632812 7.925781 C 98.480469 12.589844 86.941406 18.722656 76.277344 26.191406 C 76.089844 26.316406 75.90625 26.445312 75.726562 26.570312 C 74.800781 27.222656 73.886719 27.886719 72.976562 28.554688 L 72.976562 172.972656 L 122.566406 172.972656 L 121.691406 160.824219 L 116.871094 94.132812 L 213.976562 94.132812 L 209.15625 160.824219 L 208.28125 172.972656 L 257.324219 172.972656 L 257.324219 24.671875 C 256.59375 24.175781 255.859375 23.691406 255.121094 23.210938 Z M 130.074219 83.117188 L 116.074219 83.117188 L 113.484375 47.328125 L 130.074219 47.328125 Z M 196.921875 83.117188 L 173.40625 83.117188 L 173.40625 82.410156 C 173.40625 81.722656 173.132812 81.0625 172.644531 80.574219 C 172.160156 80.089844 171.496094 79.816406 170.808594 79.816406 L 160.585938 79.816406 C 159.15625 79.816406 157.996094 80.976562 157.996094 82.410156 L 157.996094 83.117188 L 133.378906 83.117188 L 133.378906 47.328125 L 196.921875 47.328125 Z M 200.21875 83.117188 L 200.21875 47.328125 L 217.367188 47.328125 L 214.777344 83.117188 Z M 200.21875 83.117188 "/>
<path style=" stroke:none;fill-rule:nonzero;fill:rgb(24.705882%,23.921569%,33.72549%);fill-opacity:1;" d="M 0 182.21875 C 3.644531 186.539062 7.582031 190.597656 11.792969 194.367188 L 318.132812 194.785156 C 322.34375 191.015625 326.28125 186.957031 329.925781 182.640625 Z M 0 182.21875 "/>
<path style=" stroke:none;fill-rule:nonzero;fill:rgb(24.705882%,23.921569%,33.72549%);fill-opacity:1;" d="M 207.742188 143.324219 L 207.742188 179.285156 C 207.742188 180.238281 208.515625 181.011719 209.46875 181.011719 L 262.722656 181.011719 C 263.675781 181.011719 264.449219 180.238281 264.449219 179.285156 L 264.449219 143.324219 C 264.449219 142.371094 263.675781 141.601562 262.722656 141.597656 L 209.46875 141.597656 C 208.515625 141.601562 207.742188 142.371094 207.742188 143.324219 Z M 207.742188 143.324219 "/>
<path style=" stroke:none;fill-rule:nonzero;fill:rgb(0%,67.45098%,100%);fill-opacity:1;" d="M 208.988281 143.773438 L 208.988281 178.839844 C 208.992188 179.351562 209.402344 179.765625 209.914062 179.765625 L 262.277344 179.765625 C 262.789062 179.765625 263.203125 179.351562 263.203125 178.839844 L 263.203125 143.773438 C 263.203125 143.261719 262.789062 142.847656 262.277344 142.847656 L 209.914062 142.847656 C 209.402344 142.847656 208.988281 143.261719 208.988281 143.773438 Z M 208.988281 143.773438 "/>
<path style=" stroke:none;fill-rule:nonzero;fill:rgb(18.431373%,18.039216%,25.490196%);fill-opacity:1;" d="M 206.625 186.296875 C 206.824219 186.546875 207.125 186.691406 207.441406 186.6875 L 264.464844 186.6875 C 264.78125 186.6875 265.078125 186.542969 265.277344 186.300781 C 265.476562 186.054688 265.554688 185.730469 265.492188 185.421875 L 264.605469 181.214844 C 264.53125 180.867188 264.285156 180.578125 263.953125 180.453125 C 263.832031 180.40625 263.707031 180.382812 263.578125 180.382812 L 208.324219 180.382812 C 208.195312 180.382812 208.070312 180.40625 207.949219 180.453125 C 207.617188 180.578125 207.371094 180.867188 207.296875 181.214844 L 206.414062 185.421875 C 206.347656 185.730469 206.425781 186.054688 206.625 186.296875 Z M 206.625 186.296875 "/>
<path style=" stroke:none;fill-rule:nonzero;fill:rgb(24.705882%,23.921569%,33.72549%);fill-opacity:1;" d="M 262.96875 182.195312 L 261.625 182.195312 C 261.511719 182.195312 261.417969 182.101562 261.417969 181.988281 L 261.417969 181.34375 C 261.417969 181.230469 261.511719 181.140625 261.625 181.140625 L 262.96875 181.140625 C 263.082031 181.140625 263.175781 181.230469 263.175781 181.34375 L 263.175781 181.988281 C 263.175781 182.101562 263.082031 182.195312 262.96875 182.195312 Z M 262.96875 182.195312 "/>
<path style=" stroke:none;fill-rule:nonzero;fill:rgb(24.705882%,23.921569%,33.72549%);fill-opacity:1;" d="M 259.457031 182.195312 L 258.109375 182.195312 C 257.996094 182.195312 257.90625 182.101562 257.90625 181.988281 L 257.90625 181.34375 C 257.90625 181.230469 257.996094 181.140625 258.109375 181.140625 L 259.457031 181.140625 C 259.570312 181.140625 259.664062 181.230469 259.664062 181.34375 L 259.664062 181.988281 C 259.664062 182.101562 259.570312 182.195312 259.457031 182.195312 Z M 259.457031 182.195312 "/>
<path style=" stroke:none;fill-rule:nonzero;fill:rgb(24.705882%,23.921569%,33.72549%);fill-opacity:1;" d="M 255.945312 182.195312 L 254.597656 182.195312 C 254.484375 182.195312 254.394531 182.101562 254.394531 181.988281 L 254.394531 181.34375 C 254.394531 181.230469 254.484375 181.140625 254.597656 181.140625 L 255.945312 181.140625 C 256.058594 181.140625 256.148438 181.230469 256.148438 181.34375 L 256.148438 181.988281 C 256.148438 182.101562 256.058594 182.195312 255.945312 182.195312 Z M 255.945312 182.195312 "/>
<path style=" stroke:none;fill-rule:nonzero;fill:rgb(24.705882%,23.921569%,33.72549%);fill-opacity:1;" d="M 252.433594 182.195312 L 251.085938 182.195312 C 250.972656 182.195312 250.878906 182.101562 250.878906 181.988281 L 250.878906 181.34375 C 250.878906 181.230469 250.972656 181.140625 251.085938 181.140625 L 252.433594 181.140625 C 252.546875 181.140625 252.636719 181.230469 252.636719 181.34375 L 252.636719 181.988281 C 252.636719 182.101562 252.546875 182.195312 252.433594 182.195312 Z M 252.433594 182.195312 "/>
<path style=" stroke:none;fill-rule:nonzero;fill:rgb(24.705882%,23.921569%,33.72549%);fill-opacity:1;" d="M 248.917969 182.195312 L 247.574219 182.195312 C 247.460938 182.195312 247.367188 182.101562 247.367188 181.988281 L 247.367188 181.34375 C 247.367188 181.230469 247.460938 181.140625 247.574219 181.140625 L 248.917969 181.140625 C 249.03125 181.140625 249.125 181.230469 249.125 181.34375 L 249.125 181.988281 C 249.125 182.101562 249.03125 182.195312 248.917969 182.195312 Z M 248.917969 182.195312 "/>
<path style=" stroke:none;fill-rule:nonzero;fill:rgb(24.705882%,23.921569%,33.72549%);fill-opacity:1;" d="M 245.40625 182.195312 L 244.058594 182.195312 C 243.949219 182.195312 243.855469 182.101562 243.855469 181.988281 L 243.855469 181.34375 C 243.855469 181.230469 243.949219 181.140625 244.058594 181.140625 L 245.40625 181.140625 C 245.519531 181.140625 245.613281 181.230469 245.613281 181.34375 L 245.613281 181.988281 C 245.613281 182.101562 245.519531 182.195312 245.40625 182.195312 Z M 245.40625 182.195312 "/>
<path style=" stroke:none;fill-rule:nonzero;fill:rgb(24.705882%,23.921569%,33.72549%);fill-opacity:1;" d="M 241.894531 182.195312 L 240.546875 182.195312 C 240.433594 182.195312 240.34375 182.101562 240.34375 181.988281 L 240.34375 181.34375 C 240.34375 181.230469 240.433594 181.140625 240.546875 181.140625 L 241.894531 181.140625 C 242.007812 181.140625 242.097656 181.230469 242.097656 181.34375 L 242.097656 181.988281 C 242.097656 182.101562 242.007812 182.195312 241.894531 182.195312 Z M 241.894531 182.195312 "/>
<path style=" stroke:none;fill-rule:nonzero;fill:rgb(24.705882%,23.921569%,33.72549%);fill-opacity:1;" d="M 238.382812 182.195312 L 237.035156 182.195312 C 236.921875 182.195312 236.832031 182.101562 236.832031 181.988281 L 236.832031 181.34375 C 236.832031 181.230469 236.921875 181.140625 237.035156 181.140625 L 238.382812 181.140625 C 238.496094 181.140625 238.585938 181.230469 238.585938 181.34375 L 238.585938 181.988281 C 238.585938 182.101562 238.496094 182.195312 238.382812 182.195312 Z M 238.382812 182.195312 "/>
<path style=" stroke:none;fill-rule:nonzero;fill:rgb(24.705882%,23.921569%,33.72549%);fill-opacity:1;" d="M 234.871094 182.195312 L 233.523438 182.195312 C 233.410156 182.195312 233.316406 182.101562 233.316406 181.988281 L 233.316406 181.34375 C 233.316406 181.230469 233.410156 181.140625 233.523438 181.140625 L 234.871094 181.140625 C 234.984375 181.140625 235.074219 181.230469 235.074219 181.34375 L 235.074219 181.988281 C 235.074219 182.101562 234.984375 182.195312 234.871094 182.195312 Z M 234.871094 182.195312 "/>
<path style=" stroke:none;fill-rule:nonzero;fill:rgb(24.705882%,23.921569%,33.72549%);fill-opacity:1;" d="M 231.355469 182.195312 L 230.011719 182.195312 C 229.898438 182.195312 229.804688 182.101562 229.804688 181.988281 L 229.804688 181.34375 C 229.804688 181.230469 229.898438 181.140625 230.011719 181.140625 L 231.355469 181.140625 C 231.46875 181.140625 231.5625 181.230469 231.5625 181.34375 L 231.5625 181.988281 C 231.5625 182.101562 231.46875 182.195312 231.355469 182.195312 Z M 231.355469 182.195312 "/>
<path style=" stroke:none;fill-rule:nonzero;fill:rgb(24.705882%,23.921569%,33.72549%);fill-opacity:1;" d="M 227.84375 182.195312 L 226.496094 182.195312 C 226.382812 182.195312 226.292969 182.101562 226.292969 181.988281 L 226.292969 181.34375 C 226.292969 181.230469 226.382812 181.140625 226.496094 181.140625 L 227.84375 181.140625 C 227.957031 181.140625 228.050781 181.230469 228.050781 181.34375 L 228.050781 181.988281 C 228.050781 182.101562 227.957031 182.195312 227.84375 182.195312 Z M 227.84375 182.195312 "/>
<path style=" stroke:none;fill-rule:nonzero;fill:rgb(24.705882%,23.921569%,33.72549%);fill-opacity:1;" d="M 224.332031 182.195312 L 222.984375 182.195312 C 222.871094 182.195312 222.78125 182.101562 222.78125 181.988281 L 222.78125 181.34375 C 222.78125 181.230469 222.871094 181.140625 222.984375 181.140625 L 224.332031 181.140625 C 224.445312 181.140625 224.535156 181.230469 224.535156 181.34375 L 224.535156 181.988281 C 224.535156 182.101562 224.445312 182.195312 224.332031 182.195312 Z M 224.332031 182.195312 "/>
<path style=" stroke:none;fill-rule:nonzero;fill:rgb(24.705882%,23.921569%,33.72549%);fill-opacity:1;" d="M 220.820312 182.195312 L 219.472656 182.195312 C 219.359375 182.195312 219.269531 182.101562 219.269531 181.988281 L 219.269531 181.34375 C 219.269531 181.230469 219.359375 181.140625 219.472656 181.140625 L 220.820312 181.140625 C 220.933594 181.140625 221.023438 181.230469 221.023438 181.34375 L 221.023438 181.988281 C 221.023438 182.101562 220.933594 182.195312 220.820312 182.195312 Z M 220.820312 182.195312 "/>
<path style=" stroke:none;fill-rule:nonzero;fill:rgb(24.705882%,23.921569%,33.72549%);fill-opacity:1;" d="M 217.304688 182.195312 L 215.960938 182.195312 C 215.847656 182.195312 215.753906 182.101562 215.753906 181.988281 L 215.753906 181.34375 C 215.753906 181.230469 215.847656 181.140625 215.960938 181.140625 L 217.304688 181.140625 C 217.417969 181.140625 217.511719 181.230469 217.511719 181.34375 L 217.511719 181.988281 C 217.511719 182.101562 217.417969 182.195312 217.304688 182.195312 Z M 217.304688 182.195312 "/>
<path style=" stroke:none;fill-rule:nonzero;fill:rgb(24.705882%,23.921569%,33.72549%);fill-opacity:1;" d="M 213.792969 182.195312 L 212.445312 182.195312 C 212.335938 182.195312 212.242188 182.101562 212.242188 181.988281 L 212.242188 181.34375 C 212.242188 181.230469 212.335938 181.140625 212.445312 181.140625 L 213.792969 181.140625 C 213.90625 181.140625 214 181.230469 214 181.34375 L 214 181.988281 C 214 182.101562 213.90625 182.195312 213.792969 182.195312 Z M 213.792969 182.195312 "/>
<path style=" stroke:none;fill-rule:nonzero;fill:rgb(24.705882%,23.921569%,33.72549%);fill-opacity:1;" d="M 210.28125 182.195312 L 208.933594 182.195312 C 208.820312 182.195312 208.730469 182.101562 208.730469 181.988281 L 208.730469 181.34375 C 208.730469 181.230469 208.820312 181.140625 208.933594 181.140625 L 210.28125 181.140625 C 210.394531 181.140625 210.484375 181.230469 210.484375 181.34375 L 210.484375 181.988281 C 210.484375 182.101562 210.394531 182.195312 210.28125 182.195312 Z M 210.28125 182.195312 "/>
<path style=" stroke:none;fill-rule:nonzero;fill:rgb(24.705882%,23.921569%,33.72549%);fill-opacity:1;" d="M 263.011719 183.953125 L 261.664062 183.953125 C 261.550781 183.953125 261.460938 183.859375 261.460938 183.746094 L 261.460938 183.101562 C 261.460938 182.988281 261.550781 182.898438 261.664062 182.898438 L 263.011719 182.898438 C 263.125 182.898438 263.214844 182.988281 263.214844 183.101562 L 263.214844 183.746094 C 263.214844 183.859375 263.125 183.953125 263.011719 183.953125 Z M 263.011719 183.953125 "/>
<path style=" stroke:none;fill-rule:nonzero;fill:rgb(24.705882%,23.921569%,33.72549%);fill-opacity:1;" d="M 259.5 183.953125 L 258.152344 183.953125 C 258.039062 183.953125 257.949219 183.859375 257.949219 183.746094 L 257.949219 183.101562 C 257.949219 182.988281 258.039062 182.898438 258.152344 182.898438 L 259.5 182.898438 C 259.613281 182.898438 259.703125 182.988281 259.703125 183.101562 L 259.703125 183.746094 C 259.703125 183.859375 259.613281 183.953125 259.5 183.953125 Z M 259.5 183.953125 "/>
<path style=" stroke:none;fill-rule:nonzero;fill:rgb(24.705882%,23.921569%,33.72549%);fill-opacity:1;" d="M 255.988281 183.953125 L 254.640625 183.953125 C 254.527344 183.953125 254.433594 183.859375 254.433594 183.746094 L 254.433594 183.101562 C 254.433594 182.988281 254.527344 182.898438 254.640625 182.898438 L 255.988281 182.898438 C 256.097656 182.898438 256.191406 182.988281 256.191406 183.101562 L 256.191406 183.746094 C 256.191406 183.859375 256.097656 183.953125 255.988281 183.953125 Z M 255.988281 183.953125 "/>
<path style=" stroke:none;fill-rule:nonzero;fill:rgb(24.705882%,23.921569%,33.72549%);fill-opacity:1;" d="M 252.472656 183.953125 L 251.128906 183.953125 C 251.015625 183.953125 250.921875 183.859375 250.921875 183.746094 L 250.921875 183.101562 C 250.921875 182.988281 251.015625 182.898438 251.128906 182.898438 L 252.472656 182.898438 C 252.585938 182.898438 252.679688 182.988281 252.679688 183.101562 L 252.679688 183.746094 C 252.679688 183.859375 252.585938 183.953125 252.472656 183.953125 Z M 252.472656 183.953125 "/>
<path style=" stroke:none;fill-rule:nonzero;fill:rgb(24.705882%,23.921569%,33.72549%);fill-opacity:1;" d="M 248.960938 183.953125 L 247.613281 183.953125 C 247.5 183.953125 247.410156 183.859375 247.410156 183.746094 L 247.410156 183.101562 C 247.410156 182.988281 247.5 182.898438 247.613281 182.898438 L 248.960938 182.898438 C 249.074219 182.898438 249.167969 182.988281 249.167969 183.101562 L 249.167969 183.746094 C 249.167969 183.859375 249.074219 183.953125 248.960938 183.953125 Z M 248.960938 183.953125 "/>
<path style=" stroke:none;fill-rule:nonzero;fill:rgb(24.705882%,23.921569%,33.72549%);fill-opacity:1;" d="M 245.449219 183.953125 L 244.101562 183.953125 C 243.988281 183.953125 243.898438 183.859375 243.898438 183.746094 L 243.898438 183.101562 C 243.898438 182.988281 243.988281 182.898438 244.101562 182.898438 L 245.449219 182.898438 C 245.5625 182.898438 245.652344 182.988281 245.652344 183.101562 L 245.652344 183.746094 C 245.652344 183.859375 245.5625 183.953125 245.449219 183.953125 Z M 245.449219 183.953125 "/>
<path style=" stroke:none;fill-rule:nonzero;fill:rgb(24.705882%,23.921569%,33.72549%);fill-opacity:1;" d="M 241.9375 183.953125 L 240.589844 183.953125 C 240.476562 183.953125 240.382812 183.859375 240.382812 183.746094 L 240.382812 183.101562 C 240.382812 182.988281 240.476562 182.898438 240.589844 182.898438 L 241.9375 182.898438 C 242.050781 182.898438 242.140625 182.988281 242.140625 183.101562 L 242.140625 183.746094 C 242.140625 183.859375 242.050781 183.953125 241.9375 183.953125 Z M 241.9375 183.953125 "/>
<path style=" stroke:none;fill-rule:nonzero;fill:rgb(24.705882%,23.921569%,33.72549%);fill-opacity:1;" d="M 238.421875 183.953125 L 237.078125 183.953125 C 236.964844 183.953125 236.871094 183.859375 236.871094 183.746094 L 236.871094 183.101562 C 236.871094 182.988281 236.964844 182.898438 237.078125 182.898438 L 238.421875 182.898438 C 238.535156 182.898438 238.628906 182.988281 238.628906 183.101562 L 238.628906 183.746094 C 238.628906 183.859375 238.535156 183.953125 238.421875 183.953125 Z M 238.421875 183.953125 "/>
<path style=" stroke:none;fill-rule:nonzero;fill:rgb(24.705882%,23.921569%,33.72549%);fill-opacity:1;" d="M 234.910156 183.953125 L 233.5625 183.953125 C 233.449219 183.953125 233.359375 183.859375 233.359375 183.746094 L 233.359375 183.101562 C 233.359375 182.988281 233.449219 182.898438 233.5625 182.898438 L 234.910156 182.898438 C 235.023438 182.898438 235.117188 182.988281 235.117188 183.101562 L 235.117188 183.746094 C 235.117188 183.859375 235.023438 183.953125 234.910156 183.953125 Z M 234.910156 183.953125 "/>
<path style=" stroke:none;fill-rule:nonzero;fill:rgb(24.705882%,23.921569%,33.72549%);fill-opacity:1;" d="M 231.398438 183.953125 L 230.050781 183.953125 C 229.9375 183.953125 229.847656 183.859375 229.847656 183.746094 L 229.847656 183.101562 C 229.847656 182.988281 229.9375 182.898438 230.050781 182.898438 L 231.398438 182.898438 C 231.511719 182.898438 231.601562 182.988281 231.601562 183.101562 L 231.601562 183.746094 C 231.601562 183.859375 231.511719 183.953125 231.398438 183.953125 Z M 231.398438 183.953125 "/>
<path style=" stroke:none;fill-rule:nonzero;fill:rgb(24.705882%,23.921569%,33.72549%);fill-opacity:1;" d="M 227.886719 183.953125 L 226.539062 183.953125 C 226.425781 183.953125 226.335938 183.859375 226.335938 183.746094 L 226.335938 183.101562 C 226.335938 182.988281 226.425781 182.898438 226.539062 182.898438 L 227.886719 182.898438 C 228 182.898438 228.089844 182.988281 228.089844 183.101562 L 228.089844 183.746094 C 228.089844 183.859375 228 183.953125 227.886719 183.953125 Z M 227.886719 183.953125 "/>
<path style=" stroke:none;fill-rule:nonzero;fill:rgb(24.705882%,23.921569%,33.72549%);fill-opacity:1;" d="M 224.375 183.953125 L 223.027344 183.953125 C 222.914062 183.953125 222.820312 183.859375 222.820312 183.746094 L 222.820312 183.101562 C 222.820312 182.988281 222.914062 182.898438 223.027344 182.898438 L 224.375 182.898438 C 224.484375 182.898438 224.578125 182.988281 224.578125 183.101562 L 224.578125 183.746094 C 224.578125 183.859375 224.484375 183.953125 224.375 183.953125 Z M 224.375 183.953125 "/>
<path style=" stroke:none;fill-rule:nonzero;fill:rgb(24.705882%,23.921569%,33.72549%);fill-opacity:1;" d="M 220.859375 183.953125 L 219.515625 183.953125 C 219.402344 183.953125 219.308594 183.859375 219.308594 183.746094 L 219.308594 183.101562 C 219.308594 182.988281 219.402344 182.898438 219.515625 182.898438 L 220.859375 182.898438 C 220.972656 182.898438 221.066406 182.988281 221.066406 183.101562 L 221.066406 183.746094 C 221.066406 183.859375 220.972656 183.953125 220.859375 183.953125 Z M 220.859375 183.953125 "/>
<path style=" stroke:none;fill-rule:nonzero;fill:rgb(24.705882%,23.921569%,33.72549%);fill-opacity:1;" d="M 217.347656 183.953125 L 216 183.953125 C 215.886719 183.953125 215.796875 183.859375 215.796875 183.746094 L 215.796875 183.101562 C 215.796875 182.988281 215.886719 182.898438 216 182.898438 L 217.347656 182.898438 C 217.460938 182.898438 217.554688 182.988281 217.554688 183.101562 L 217.554688 183.746094 C 217.554688 183.859375 217.460938 183.953125 217.347656 183.953125 Z M 217.347656 183.953125 "/>
<path style=" stroke:none;fill-rule:nonzero;fill:rgb(24.705882%,23.921569%,33.72549%);fill-opacity:1;" d="M 213.835938 183.953125 L 212.488281 183.953125 C 212.375 183.953125 212.285156 183.859375 212.285156 183.746094 L 212.285156 183.101562 C 212.285156 182.988281 212.375 182.898438 212.488281 182.898438 L 213.835938 182.898438 C 213.949219 182.898438 214.039062 182.988281 214.039062 183.101562 L 214.039062 183.746094 C 214.039062 183.859375 213.949219 183.953125 213.835938 183.953125 Z M 213.835938 183.953125 "/>
<path style=" stroke:none;fill-rule:nonzero;fill:rgb(24.705882%,23.921569%,33.72549%);fill-opacity:1;" d="M 210.324219 183.953125 L 208.976562 183.953125 C 208.863281 183.953125 208.769531 183.859375 208.769531 183.746094 L 208.769531 183.101562 C 208.769531 182.988281 208.863281 182.898438 208.976562 182.898438 L 210.324219 182.898438 C 210.4375 182.898438 210.527344 182.988281 210.527344 183.101562 L 210.527344 183.746094 C 210.527344 183.859375 210.4375 183.953125 210.324219 183.953125 Z M 210.324219 183.953125 "/>
<path style=" stroke:none;fill-rule:nonzero;fill:rgb(24.705882%,23.921569%,33.72549%);fill-opacity:1;" d="M 246.152344 186.0625 L 232.511719 186.0625 C 232.398438 186.0625 232.304688 185.96875 232.304688 185.855469 L 232.304688 185.210938 C 232.304688 185.097656 232.398438 185.007812 232.511719 185.007812 L 246.152344 185.007812 C 246.265625 185.007812 246.355469 185.097656 246.355469 185.210938 L 246.355469 185.855469 C 246.355469 185.96875 246.265625 186.0625 246.152344 186.0625 Z M 246.152344 186.0625 "/>
<path style=" stroke:none;fill-rule:nonzero;fill:rgb(100%,100%,100%);fill-opacity:1;" d="M 216.867188 150.519531 L 218.058594 150.519531 C 218.417969 150.519531 218.710938 150.8125 218.710938 151.175781 C 218.710938 151.535156 218.417969 151.828125 218.058594 151.828125 L 216.867188 151.828125 C 216.503906 151.828125 216.210938 151.535156 216.210938 151.175781 C 216.210938 150.8125 216.503906 150.519531 216.867188 150.519531 Z M 216.867188 150.519531 "/>
<path style=" stroke:none;fill-rule:nonzero;fill:rgb(100%,100%,100%);fill-opacity:1;" d="M 230.503906 150.519531 L 231.695312 150.519531 C 232.058594 150.519531 232.351562 150.8125 232.351562 151.175781 C 232.351562 151.535156 232.058594 151.828125 231.695312 151.828125 L 230.503906 151.828125 C 230.140625 151.828125 229.847656 151.535156 229.847656 151.175781 C 229.847656 150.8125 230.140625 150.519531 230.503906 150.519531 Z M 230.503906 150.519531 "/>
<path style=" stroke:none;fill-rule:nonzero;fill:rgb(100%,100%,100%);fill-opacity:1;" d="M 234.367188 150.519531 L 235.558594 150.519531 C 235.921875 150.519531 236.214844 150.8125 236.214844 151.175781 C 236.214844 151.535156 235.921875 151.828125 235.558594 151.828125 L 234.367188 151.828125 C 234.003906 151.828125 233.710938 151.535156 233.710938 151.175781 C 233.710938 150.8125 234.003906 150.519531 234.367188 150.519531 Z M 234.367188 150.519531 "/>
<path style=" stroke:none;fill-rule:nonzero;fill:rgb(100%,100%,100%);fill-opacity:1;" d="M 220.574219 150.410156 L 227.984375 150.410156 C 228.347656 150.410156 228.640625 150.703125 228.640625 151.066406 C 228.640625 151.425781 228.347656 151.71875 227.984375 151.71875 L 220.574219 151.71875 C 220.214844 151.71875 219.921875 151.425781 219.921875 151.066406 C 219.921875 150.703125 220.214844 150.410156 220.574219 150.410156 Z M 220.574219 150.410156 "/>
<path style=" stroke:none;fill-rule:nonzero;fill:rgb(100%,100%,100%);fill-opacity:1;" d="M 238.757812 150.410156 L 246.167969 150.410156 C 246.53125 150.410156 246.824219 150.703125 246.824219 151.066406 C 246.824219 151.425781 246.53125 151.71875 246.167969 151.71875 L 238.757812 151.71875 C 238.398438 151.71875 238.105469 151.425781 238.105469 151.066406 C 238.105469 150.703125 238.398438 150.410156 238.757812 150.410156 Z M 238.757812 150.410156 "/>
<path style=" stroke:none;fill-rule:nonzero;fill:rgb(100%,100%,100%);fill-opacity:1;" d="M 220.503906 153.476562 L 221.695312 153.476562 C 222.054688 153.476562 222.347656 153.769531 222.347656 154.128906 C 222.347656 154.492188 222.054688 154.785156 221.695312 154.785156 L 220.503906 154.785156 C 220.140625 154.785156 219.847656 154.492188 219.847656 154.128906 C 219.847656 153.769531 220.140625 153.476562 220.503906 153.476562 Z M 220.503906 153.476562 "/>
<path style=" stroke:none;fill-rule:nonzero;fill:rgb(100%,100%,100%);fill-opacity:1;" d="M 234.140625 153.476562 L 235.332031 153.476562 C 235.695312 153.476562 235.988281 153.769531 235.988281 154.128906 C 235.988281 154.492188 235.695312 154.785156 235.332031 154.785156 L 234.140625 154.785156 C 233.777344 154.785156 233.484375 154.492188 233.484375 154.128906 C 233.484375 153.769531 233.777344 153.476562 234.140625 153.476562 Z M 234.140625 153.476562 "/>
<path style=" stroke:none;fill-rule:nonzero;fill:rgb(100%,100%,100%);fill-opacity:1;" d="M 238.003906 153.476562 L 239.195312 153.476562 C 239.558594 153.476562 239.851562 153.769531 239.851562 154.128906 C 239.851562 154.492188 239.558594 154.785156 239.195312 154.785156 L 238.003906 154.785156 C 237.640625 154.785156 237.347656 154.492188 237.347656 154.128906 C 237.347656 153.769531 237.640625 153.476562 238.003906 153.476562 Z M 238.003906 153.476562 "/>
<path style=" stroke:none;fill-rule:nonzero;fill:rgb(100%,100%,100%);fill-opacity:1;" d="M 224.210938 153.367188 L 231.621094 153.367188 C 231.984375 153.367188 232.277344 153.660156 232.277344 154.019531 C 232.277344 154.382812 231.984375 154.675781 231.621094 154.675781 L 224.210938 154.675781 C 223.851562 154.675781 223.558594 154.382812 223.558594 154.019531 C 223.558594 153.660156 223.851562 153.367188 224.210938 153.367188 Z M 224.210938 153.367188 "/>
<path style=" stroke:none;fill-rule:nonzero;fill:rgb(100%,100%,100%);fill-opacity:1;" d="M 242.394531 153.367188 L 249.804688 153.367188 C 250.167969 153.367188 250.460938 153.660156 250.460938 154.019531 C 250.460938 154.382812 250.167969 154.675781 249.804688 154.675781 L 242.394531 154.675781 C 242.035156 154.675781 241.742188 154.382812 241.742188 154.019531 C 241.742188 153.660156 242.035156 153.367188 242.394531 153.367188 Z M 242.394531 153.367188 "/>
<path style=" stroke:none;fill-rule:nonzero;fill:rgb(100%,100%,100%);fill-opacity:1;" d="M 224.140625 156.433594 L 225.332031 156.433594 C 225.691406 156.433594 225.984375 156.726562 225.984375 157.085938 C 225.984375 157.449219 225.691406 157.742188 225.332031 157.742188 L 224.140625 157.742188 C 223.777344 157.742188 223.484375 157.449219 223.484375 157.085938 C 223.484375 156.726562 223.777344 156.433594 224.140625 156.433594 Z M 224.140625 156.433594 "/>
<path style=" stroke:none;fill-rule:nonzero;fill:rgb(100%,100%,100%);fill-opacity:1;" d="M 237.777344 156.433594 L 238.96875 156.433594 C 239.332031 156.433594 239.625 156.726562 239.625 157.085938 C 239.625 157.449219 239.332031 157.742188 238.96875 157.742188 L 237.777344 157.742188 C 237.414062 157.742188 237.121094 157.449219 237.121094 157.085938 C 237.121094 156.726562 237.414062 156.433594 237.777344 156.433594 Z M 237.777344 156.433594 "/>
<path style=" stroke:none;fill-rule:nonzero;fill:rgb(100%,100%,100%);fill-opacity:1;" d="M 241.640625 156.433594 L 242.832031 156.433594 C 243.195312 156.433594 243.488281 156.726562 243.488281 157.085938 C 243.488281 157.449219 243.195312 157.742188 242.832031 157.742188 L 241.640625 157.742188 C 241.277344 157.742188 240.984375 157.449219 240.984375 157.085938 C 240.984375 156.726562 241.277344 156.433594 241.640625 156.433594 Z M 241.640625 156.433594 "/>
<path style=" stroke:none;fill-rule:nonzero;fill:rgb(100%,100%,100%);fill-opacity:1;" d="M 227.847656 156.324219 L 235.257812 156.324219 C 235.621094 156.324219 235.914062 156.617188 235.914062 156.976562 C 235.914062 157.339844 235.621094 157.632812 235.257812 157.632812 L 227.847656 157.632812 C 227.488281 157.632812 227.195312 157.339844 227.195312 156.976562 C 227.195312 156.617188 227.488281 156.324219 227.847656 156.324219 Z M 227.847656 156.324219 "/>
<path style=" stroke:none;fill-rule:nonzero;fill:rgb(100%,100%,100%);fill-opacity:1;" d="M 246.03125 156.324219 L 253.441406 156.324219 C 253.804688 156.324219 254.097656 156.617188 254.097656 156.976562 C 254.097656 157.339844 253.804688 157.632812 253.441406 157.632812 L 246.03125 157.632812 C 245.671875 157.632812 245.378906 157.339844 245.378906 156.976562 C 245.378906 156.617188 245.671875 156.324219 246.03125 156.324219 Z M 246.03125 156.324219 "/>
<path style=" stroke:none;fill-rule:nonzero;fill:rgb(100%,100%,100%);fill-opacity:1;" d="M 227.777344 159.390625 L 228.96875 159.390625 C 229.328125 159.390625 229.621094 159.683594 229.621094 160.042969 C 229.621094 160.40625 229.328125 160.699219 228.96875 160.699219 L 227.777344 160.699219 C 227.414062 160.699219 227.121094 160.40625 227.121094 160.042969 C 227.121094 159.683594 227.414062 159.390625 227.777344 159.390625 Z M 227.777344 159.390625 "/>
<path style=" stroke:none;fill-rule:nonzero;fill:rgb(100%,100%,100%);fill-opacity:1;" d="M 241.414062 159.390625 L 242.605469 159.390625 C 242.96875 159.390625 243.261719 159.683594 243.261719 160.042969 C 243.261719 160.40625 242.96875 160.699219 242.605469 160.699219 L 241.414062 160.699219 C 241.050781 160.699219 240.757812 160.40625 240.757812 160.042969 C 240.757812 159.683594 241.050781 159.390625 241.414062 159.390625 Z M 241.414062 159.390625 "/>
<path style=" stroke:none;fill-rule:nonzero;fill:rgb(100%,100%,100%);fill-opacity:1;" d="M 245.277344 159.390625 L 246.46875 159.390625 C 246.832031 159.390625 247.125 159.683594 247.125 160.042969 C 247.125 160.40625 246.832031 160.699219 246.46875 160.699219 L 245.277344 160.699219 C 244.914062 160.699219 244.621094 160.40625 244.621094 160.042969 C 244.621094 159.683594 244.914062 159.390625 245.277344 159.390625 Z M 245.277344 159.390625 "/>
<path style=" stroke:none;fill-rule:nonzero;fill:rgb(100%,100%,100%);fill-opacity:1;" d="M 231.484375 159.28125 L 238.894531 159.28125 C 239.257812 159.28125 239.550781 159.574219 239.550781 159.933594 C 239.550781 160.296875 239.257812 160.589844 238.894531 160.589844 L 231.484375 160.589844 C 231.125 160.589844 230.832031 160.296875 230.832031 159.933594 C 230.832031 159.574219 231.125 159.28125 231.484375 159.28125 Z M 231.484375 159.28125 "/>
<path style=" stroke:none;fill-rule:nonzero;fill:rgb(100%,100%,100%);fill-opacity:1;" d="M 230.503906 171.144531 L 231.695312 171.144531 C 232.058594 171.144531 232.351562 171.4375 232.351562 171.800781 C 232.351562 172.164062 232.058594 172.457031 231.695312 172.457031 L 230.503906 172.457031 C 230.140625 172.457031 229.847656 172.164062 229.847656 171.800781 C 229.847656 171.4375 230.140625 171.144531 230.503906 171.144531 Z M 230.503906 171.144531 "/>
<path style=" stroke:none;fill-rule:nonzero;fill:rgb(100%,100%,100%);fill-opacity:1;" d="M 234.367188 171.144531 L 235.558594 171.144531 C 235.921875 171.144531 236.214844 171.4375 236.214844 171.800781 C 236.214844 172.164062 235.921875 172.457031 235.558594 172.457031 L 234.367188 172.457031 C 234.003906 172.457031 233.710938 172.164062 233.710938 171.800781 C 233.710938 171.4375 234.003906 171.144531 234.367188 171.144531 Z M 234.367188 171.144531 "/>
<path style=" stroke:none;fill-rule:nonzero;fill:rgb(100%,100%,100%);fill-opacity:1;" d="M 238.757812 171.253906 L 246.167969 171.253906 C 246.53125 171.253906 246.824219 171.546875 246.824219 171.910156 C 246.824219 172.273438 246.53125 172.566406 246.167969 172.566406 L 238.757812 172.566406 C 238.398438 172.566406 238.105469 172.273438 238.105469 171.910156 C 238.105469 171.546875 238.398438 171.253906 238.757812 171.253906 Z M 238.757812 171.253906 "/>
<path style=" stroke:none;fill-rule:nonzero;fill:rgb(100%,100%,100%);fill-opacity:1;" d="M 216.867188 171.144531 L 218.058594 171.144531 C 218.417969 171.144531 218.710938 171.4375 218.710938 171.800781 C 218.710938 172.164062 218.417969 172.457031 218.058594 172.457031 L 216.867188 172.457031 C 216.503906 172.457031 216.210938 172.164062 216.210938 171.800781 C 216.210938 171.4375 216.503906 171.144531 216.867188 171.144531 Z M 216.867188 171.144531 "/>
<path style=" stroke:none;fill-rule:nonzero;fill:rgb(100%,100%,100%);fill-opacity:1;" d="M 220.574219 171.253906 L 227.984375 171.253906 C 228.347656 171.253906 228.640625 171.546875 228.640625 171.910156 C 228.640625 172.273438 228.347656 172.566406 227.984375 172.566406 L 220.574219 172.566406 C 220.214844 172.566406 219.921875 172.273438 219.921875 171.910156 C 219.921875 171.546875 220.214844 171.253906 220.574219 171.253906 Z M 220.574219 171.253906 "/>
<path style=" stroke:none;fill-rule:nonzero;fill:rgb(100%,100%,100%);fill-opacity:1;" d="M 220.503906 168.1875 L 221.695312 168.1875 C 222.054688 168.1875 222.347656 168.484375 222.347656 168.84375 C 222.347656 169.207031 222.054688 169.5 221.695312 169.5 L 220.503906 169.5 C 220.140625 169.5 219.847656 169.207031 219.847656 168.84375 C 219.847656 168.484375 220.140625 168.1875 220.503906 168.1875 Z M 220.503906 168.1875 "/>
<path style=" stroke:none;fill-rule:nonzero;fill:rgb(100%,100%,100%);fill-opacity:1;" d="M 234.140625 168.1875 L 235.332031 168.1875 C 235.695312 168.1875 235.988281 168.484375 235.988281 168.84375 C 235.988281 169.207031 235.695312 169.5 235.332031 169.5 L 234.140625 169.5 C 233.777344 169.5 233.484375 169.207031 233.484375 168.84375 C 233.484375 168.484375 233.777344 168.1875 234.140625 168.1875 Z M 234.140625 168.1875 "/>
<path style=" stroke:none;fill-rule:nonzero;fill:rgb(100%,100%,100%);fill-opacity:1;" d="M 238.003906 168.1875 L 239.195312 168.1875 C 239.558594 168.1875 239.851562 168.484375 239.851562 168.84375 C 239.851562 169.207031 239.558594 169.5 239.195312 169.5 L 238.003906 169.5 C 237.640625 169.5 237.347656 169.207031 237.347656 168.84375 C 237.347656 168.484375 237.640625 168.1875 238.003906 168.1875 Z M 238.003906 168.1875 "/>
<path style=" stroke:none;fill-rule:nonzero;fill:rgb(100%,100%,100%);fill-opacity:1;" d="M 224.210938 168.296875 L 231.621094 168.296875 C 231.984375 168.296875 232.277344 168.589844 232.277344 168.953125 C 232.277344 169.316406 231.984375 169.609375 231.621094 169.609375 L 224.210938 169.609375 C 223.851562 169.609375 223.558594 169.316406 223.558594 168.953125 C 223.558594 168.589844 223.851562 168.296875 224.210938 168.296875 Z M 224.210938 168.296875 "/>
<path style=" stroke:none;fill-rule:nonzero;fill:rgb(100%,100%,100%);fill-opacity:1;" d="M 224.140625 165.234375 L 225.332031 165.234375 C 225.691406 165.234375 225.984375 165.527344 225.984375 165.886719 C 225.984375 166.25 225.691406 166.542969 225.332031 166.542969 L 224.140625 166.542969 C 223.777344 166.542969 223.484375 166.25 223.484375 165.886719 C 223.484375 165.527344 223.777344 165.234375 224.140625 165.234375 Z M 224.140625 165.234375 "/>
<path style=" stroke:none;fill-rule:nonzero;fill:rgb(100%,100%,100%);fill-opacity:1;" d="M 237.777344 165.234375 L 238.96875 165.234375 C 239.332031 165.234375 239.625 165.527344 239.625 165.886719 C 239.625 166.25 239.332031 166.542969 238.96875 166.542969 L 237.777344 166.542969 C 237.414062 166.542969 237.121094 166.25 237.121094 165.886719 C 237.121094 165.527344 237.414062 165.234375 237.777344 165.234375 Z M 237.777344 165.234375 "/>
<path style=" stroke:none;fill-rule:nonzero;fill:rgb(100%,100%,100%);fill-opacity:1;" d="M 241.640625 165.234375 L 242.832031 165.234375 C 243.195312 165.234375 243.488281 165.527344 243.488281 165.886719 C 243.488281 166.25 243.195312 166.542969 242.832031 166.542969 L 241.640625 166.542969 C 241.277344 166.542969 240.984375 166.25 240.984375 165.886719 C 240.984375 165.527344 241.277344 165.234375 241.640625 165.234375 Z M 241.640625 165.234375 "/>
<path style=" stroke:none;fill-rule:nonzero;fill:rgb(100%,100%,100%);fill-opacity:1;" d="M 227.847656 165.339844 L 235.257812 165.339844 C 235.621094 165.339844 235.914062 165.636719 235.914062 165.996094 C 235.914062 166.359375 235.621094 166.652344 235.257812 166.652344 L 227.847656 166.652344 C 227.488281 166.652344 227.195312 166.359375 227.195312 165.996094 C 227.195312 165.636719 227.488281 165.339844 227.847656 165.339844 Z M 227.847656 165.339844 "/>
<path style=" stroke:none;fill-rule:nonzero;fill:rgb(100%,100%,100%);fill-opacity:1;" d="M 227.777344 162.277344 L 228.96875 162.277344 C 229.328125 162.277344 229.621094 162.570312 229.621094 162.929688 C 229.621094 163.292969 229.328125 163.585938 228.96875 163.585938 L 227.777344 163.585938 C 227.414062 163.585938 227.121094 163.292969 227.121094 162.929688 C 227.121094 162.570312 227.414062 162.277344 227.777344 162.277344 Z M 227.777344 162.277344 "/>
<path style=" stroke:none;fill-rule:nonzero;fill:rgb(100%,100%,100%);fill-opacity:1;" d="M 241.414062 162.277344 L 242.605469 162.277344 C 242.96875 162.277344 243.261719 162.570312 243.261719 162.929688 C 243.261719 163.292969 242.96875 163.585938 242.605469 163.585938 L 241.414062 163.585938 C 241.050781 163.585938 240.757812 163.292969 240.757812 162.929688 C 240.757812 162.570312 241.050781 162.277344 241.414062 162.277344 Z M 241.414062 162.277344 "/>
<path style=" stroke:none;fill-rule:nonzero;fill:rgb(100%,100%,100%);fill-opacity:1;" d="M 245.277344 162.277344 L 246.46875 162.277344 C 246.832031 162.277344 247.125 162.570312 247.125 162.929688 C 247.125 163.292969 246.832031 163.585938 246.46875 163.585938 L 245.277344 163.585938 C 244.914062 163.585938 244.621094 163.292969 244.621094 162.929688 C 244.621094 162.570312 244.914062 162.277344 245.277344 162.277344 Z M 245.277344 162.277344 "/>
<path style=" stroke:none;fill-rule:nonzero;fill:rgb(100%,100%,100%);fill-opacity:1;" d="M 231.484375 162.386719 L 238.894531 162.386719 C 239.257812 162.386719 239.550781 162.679688 239.550781 163.039062 C 239.550781 163.402344 239.257812 163.695312 238.894531 163.695312 L 231.484375 163.695312 C 231.125 163.695312 230.832031 163.402344 230.832031 163.039062 C 230.832031 162.679688 231.125 162.386719 231.484375 162.386719 Z M 231.484375 162.386719 "/>
<path style=" stroke:none;fill-rule:nonzero;fill:rgb(100%,71.372549%,71.372549%);fill-opacity:1;" d="M 211.71875 205.796875 L 206.121094 196.941406 L 223.691406 182.925781 L 230.945312 174.886719 C 232.859375 172.761719 235.761719 171.816406 238.5625 172.40625 C 241.363281 172.996094 243.640625 175.035156 244.535156 177.753906 C 245.894531 181.867188 243.75 186.320312 239.683594 187.820312 L 228.21875 192.046875 Z M 211.71875 205.796875 "/>
<path style=" stroke:none;fill-rule:nonzero;fill:rgb(18.431373%,18.039216%,25.490196%);fill-opacity:1;" d="M 80.378906 141.601562 L 80.378906 184.632812 L 110.507812 184.632812 L 110.507812 141.601562 C 110.507812 140.964844 110.09375 140.402344 109.488281 140.214844 C 109.347656 140.167969 109.203125 140.148438 109.054688 140.148438 L 81.832031 140.148438 C 81.03125 140.148438 80.378906 140.796875 80.378906 141.601562 Z M 92.136719 156.386719 C 92.152344 154.621094 93.585938 153.199219 95.351562 153.199219 C 97.117188 153.199219 98.550781 154.621094 98.566406 156.386719 L 98.566406 161.378906 C 98.558594 163.148438 97.121094 164.582031 95.351562 164.582031 C 93.582031 164.582031 92.144531 163.148438 92.136719 161.378906 Z M 92.136719 156.386719 "/>
<path style=" stroke:none;fill-rule:nonzero;fill:rgb(24.705882%,23.921569%,33.72549%);fill-opacity:1;" d="M 80.285156 183.257812 L 80.285156 187.40625 C 80.289062 187.851562 80.648438 188.214844 81.09375 188.21875 L 109.789062 188.21875 C 110.238281 188.21875 110.597656 187.855469 110.597656 187.40625 L 110.597656 183.257812 Z M 80.285156 183.257812 "/>
<path style=" stroke:none;fill-rule:nonzero;fill:rgb(24.705882%,23.921569%,33.72549%);fill-opacity:1;" d="M 32.984375 76.765625 L 32.984375 155.335938 C 32.984375 157.421875 34.671875 159.113281 36.757812 159.113281 L 153.117188 159.113281 C 155.199219 159.113281 156.890625 157.421875 156.890625 155.335938 L 156.890625 76.765625 C 156.886719 74.683594 155.199219 72.996094 153.117188 72.996094 L 36.757812 72.996094 C 34.675781 72.996094 32.988281 74.683594 32.984375 76.765625 Z M 32.984375 76.765625 "/>
<path style=" stroke:none;fill-rule:nonzero;fill:rgb(100%,100%,100%);fill-opacity:1;" d="M 35.714844 77.746094 L 35.714844 154.367188 C 35.714844 155.480469 36.617188 156.382812 37.730469 156.386719 L 152.148438 156.386719 C 153.261719 156.382812 154.164062 155.480469 154.164062 154.367188 L 154.164062 77.746094 C 154.164062 76.628906 153.261719 75.722656 152.148438 75.722656 L 37.730469 75.722656 C 36.617188 75.722656 35.714844 76.628906 35.714844 77.746094 Z M 35.714844 77.746094 "/>
<path style=" stroke:none;fill-rule:nonzero;fill:rgb(18.431373%,18.039216%,25.490196%);fill-opacity:1;" d="M 56.945312 187.9375 C 57.183594 188.234375 57.542969 188.40625 57.917969 188.40625 L 125.992188 188.40625 C 126.367188 188.402344 126.726562 188.234375 126.960938 187.941406 C 127.199219 187.648438 127.292969 187.261719 127.214844 186.894531 L 126.160156 181.871094 C 126.070312 181.457031 125.777344 181.113281 125.378906 180.960938 C 125.238281 180.90625 125.085938 180.878906 124.933594 180.878906 L 58.972656 180.878906 C 58.820312 180.878906 58.667969 180.90625 58.527344 180.960938 C 58.128906 181.113281 57.835938 181.457031 57.746094 181.871094 L 56.691406 186.894531 C 56.613281 187.261719 56.710938 187.648438 56.945312 187.9375 Z M 56.945312 187.9375 "/>
<path style=" stroke:none;fill-rule:nonzero;fill:rgb(24.705882%,23.921569%,33.72549%);fill-opacity:1;" d="M 148.433594 86.277344 L 41.375 86.277344 C 41.144531 86.273438 40.957031 86.082031 40.957031 85.851562 C 40.957031 85.621094 41.144531 85.429688 41.375 85.425781 L 148.433594 85.425781 C 148.667969 85.429688 148.851562 85.621094 148.851562 85.851562 C 148.851562 86.082031 148.667969 86.273438 148.433594 86.277344 Z M 148.433594 86.277344 "/>
<path style=" stroke:none;fill-rule:nonzero;fill:rgb(24.705882%,23.921569%,33.72549%);fill-opacity:1;" d="M 51.15625 80.699219 C 51.15625 79.289062 50.039062 78.144531 48.660156 78.144531 C 47.285156 78.144531 46.167969 79.289062 46.167969 80.699219 C 46.167969 82.105469 47.285156 83.25 48.660156 83.25 C 50.039062 83.25 51.15625 82.105469 51.15625 80.699219 Z M 51.15625 80.699219 "/>
<path style=" stroke:none;fill-rule:nonzero;fill:rgb(24.705882%,23.921569%,33.72549%);fill-opacity:1;" d="M 59.777344 80.699219 C 59.777344 79.289062 58.660156 78.144531 57.28125 78.144531 C 55.902344 78.144531 54.785156 79.289062 54.785156 80.699219 C 54.785156 82.105469 55.902344 83.25 57.28125 83.25 C 58.660156 83.25 59.777344 82.105469 59.777344 80.699219 Z M 59.777344 80.699219 "/>
<path style=" stroke:none;fill-rule:nonzero;fill:rgb(24.705882%,23.921569%,33.72549%);fill-opacity:1;" d="M 68.394531 80.699219 C 68.394531 79.289062 67.277344 78.144531 65.902344 78.144531 C 64.523438 78.144531 63.40625 79.289062 63.40625 80.699219 C 63.40625 82.105469 64.523438 83.25 65.902344 83.25 C 67.277344 83.25 68.394531 82.105469 68.394531 80.699219 Z M 68.394531 80.699219 "/>
<path style=" stroke:none;fill-rule:nonzero;fill:rgb(24.705882%,23.921569%,33.72549%);fill-opacity:1;" d="M 143.246094 78.777344 L 137.121094 78.777344 C 136.871094 78.78125 136.667969 78.988281 136.667969 79.238281 C 136.667969 79.492188 136.871094 79.699219 137.121094 79.703125 L 143.246094 79.703125 C 143.496094 79.699219 143.703125 79.492188 143.703125 79.238281 C 143.703125 78.988281 143.496094 78.78125 143.246094 78.777344 Z M 143.246094 78.777344 "/>
<path style=" stroke:none;fill-rule:nonzero;fill:rgb(24.705882%,23.921569%,33.72549%);fill-opacity:1;" d="M 143.246094 80.519531 L 137.121094 80.519531 C 136.871094 80.523438 136.667969 80.730469 136.667969 80.980469 C 136.667969 81.234375 136.871094 81.441406 137.121094 81.445312 L 143.246094 81.445312 C 143.5 81.441406 143.703125 81.234375 143.703125 80.980469 C 143.703125 80.726562 143.5 80.519531 143.246094 80.519531 Z M 143.246094 80.519531 "/>
<path style=" stroke:none;fill-rule:nonzero;fill:rgb(24.705882%,23.921569%,33.72549%);fill-opacity:1;" d="M 143.246094 82.257812 L 137.121094 82.257812 C 136.871094 82.265625 136.667969 82.472656 136.667969 82.722656 C 136.667969 82.976562 136.871094 83.179688 137.121094 83.1875 L 143.246094 83.1875 C 143.496094 83.183594 143.703125 82.976562 143.703125 82.722656 C 143.703125 82.46875 143.496094 82.261719 143.246094 82.257812 Z M 143.246094 82.257812 "/>
<path style=" stroke:none;fill-rule:nonzero;fill:rgb(18.431373%,18.039216%,25.490196%);fill-opacity:1;" d="M 290.835938 185.078125 C 291.214844 186.183594 292.261719 186.914062 293.425781 186.894531 L 304.535156 186.609375 C 305.710938 186.585938 306.734375 185.789062 307.042969 184.65625 L 308.613281 167.835938 C 309.171875 168.085938 309.78125 168.210938 310.390625 168.199219 C 312.628906 168.144531 314.398438 166.285156 314.339844 164.046875 C 314.285156 161.808594 312.425781 160.039062 310.1875 160.09375 C 309.945312 160.09375 309.699219 160.121094 309.460938 160.171875 C 308.933594 159.601562 308.191406 159.28125 307.417969 159.289062 L 290.328125 159.730469 C 290.1875 159.734375 290.046875 159.753906 289.910156 159.78125 C 289.148438 159.925781 288.492188 160.386719 288.097656 161.050781 C 287.707031 161.714844 287.621094 162.519531 287.863281 163.25 Z M 308.9375 166.691406 L 310.054688 162.683594 C 310.183594 162.222656 310.1875 161.734375 310.066406 161.269531 C 310.117188 161.269531 310.167969 161.242188 310.222656 161.242188 C 311.816406 161.210938 313.140625 162.476562 313.179688 164.074219 C 313.214844 165.671875 311.953125 167 310.355469 167.039062 C 309.859375 167.054688 309.371094 166.933594 308.9375 166.691406 Z M 308.9375 166.691406 "/>
<path style=" stroke:none;fill-rule:nonzero;fill:rgb(24.705882%,23.921569%,33.72549%);fill-opacity:1;" d="M 289.910156 159.78125 C 290.273438 161.867188 294.367188 163.328125 299.285156 163.074219 C 303.8125 162.867188 307.511719 161.277344 308.191406 159.390625 C 307.941406 159.316406 307.679688 159.28125 307.417969 159.289062 L 290.328125 159.730469 C 290.1875 159.734375 290.046875 159.753906 289.910156 159.78125 Z M 289.910156 159.78125 "/>
<path style=" stroke:none;fill-rule:nonzero;fill:rgb(0%,67.45098%,100%);fill-opacity:1;" d="M 300.1875 175.835938 C 300.210938 175.828125 300.234375 175.820312 300.25 175.808594 L 302.664062 174.226562 C 302.722656 174.1875 302.757812 174.121094 302.757812 174.050781 C 302.757812 173.980469 302.722656 173.914062 302.664062 173.875 L 300.15625 172.234375 C 300.09375 172.191406 300.015625 172.1875 299.949219 172.21875 C 299.878906 172.253906 299.835938 172.320312 299.832031 172.394531 C 299.828125 172.472656 299.863281 172.542969 299.925781 172.582031 L 302.167969 174.050781 L 300.023438 175.457031 C 299.9375 175.511719 299.902344 175.621094 299.945312 175.714844 C 299.988281 175.808594 300.089844 175.859375 300.1875 175.835938 Z M 300.1875 175.835938 "/>
<path style=" stroke:none;fill-rule:nonzero;fill:rgb(0%,67.45098%,100%);fill-opacity:1;" d="M 296.378906 176.011719 C 296.460938 175.988281 296.523438 175.921875 296.535156 175.835938 C 296.546875 175.75 296.503906 175.667969 296.429688 175.625 L 294.207031 174.351562 L 296.355469 172.753906 C 296.449219 172.683594 296.46875 172.550781 296.398438 172.457031 C 296.332031 172.367188 296.199219 172.347656 296.105469 172.414062 L 293.699219 174.203125 C 293.644531 174.246094 293.613281 174.3125 293.617188 174.386719 C 293.621094 174.457031 293.660156 174.519531 293.722656 174.554688 L 296.222656 175.988281 C 296.269531 176.015625 296.324219 176.023438 296.378906 176.011719 Z M 296.378906 176.011719 "/>
<path style=" stroke:none;fill-rule:nonzero;fill:rgb(0%,67.45098%,100%);fill-opacity:1;" d="M 299.949219 177.21875 C 299.96875 177.214844 299.988281 177.207031 300.007812 177.195312 C 300.054688 177.167969 300.085938 177.121094 300.101562 177.066406 C 300.113281 177.011719 300.105469 176.953125 300.078125 176.90625 L 296.65625 171.28125 C 296.597656 171.183594 296.46875 171.152344 296.367188 171.210938 C 296.269531 171.273438 296.238281 171.402344 296.296875 171.5 L 299.71875 177.125 C 299.765625 177.203125 299.859375 177.242188 299.949219 177.21875 Z M 299.949219 177.21875 "/>
<path style=" stroke:none;fill-rule:nonzero;fill:rgb(0%,67.45098%,100%);fill-opacity:1;" d="M 89.167969 109.4375 L 107.695312 109.4375 C 108.453125 109.4375 109.066406 110.050781 109.066406 110.808594 L 109.066406 112.617188 C 109.066406 113.375 108.453125 113.988281 107.695312 113.988281 L 89.167969 113.988281 C 88.410156 113.988281 87.796875 113.375 87.796875 112.617188 L 87.796875 110.808594 C 87.796875 110.050781 88.410156 109.4375 89.167969 109.4375 Z M 89.167969 109.4375 "/>
<path style=" stroke:none;fill-rule:nonzero;fill:rgb(90.196078%,90.196078%,90.196078%);fill-opacity:1;" d="M 78.367188 118.539062 L 118.496094 118.539062 C 119.253906 118.539062 119.867188 119.152344 119.867188 119.910156 L 119.867188 121.71875 C 119.867188 122.476562 119.253906 123.089844 118.496094 123.089844 L 78.367188 123.089844 C 77.609375 123.089844 76.996094 122.476562 76.996094 121.71875 L 76.996094 119.910156 C 76.996094 119.152344 77.609375 118.539062 78.367188 118.539062 Z M 78.367188 118.539062 "/>
<path style=" stroke:none;fill-rule:nonzero;fill:rgb(90.196078%,90.196078%,90.196078%);fill-opacity:1;" d="M 78.367188 127.640625 L 118.496094 127.640625 C 119.253906 127.640625 119.867188 128.253906 119.867188 129.011719 L 119.867188 130.820312 C 119.867188 131.578125 119.253906 132.191406 118.496094 132.191406 L 78.367188 132.191406 C 77.609375 132.191406 76.996094 131.578125 76.996094 130.820312 L 76.996094 129.011719 C 76.996094 128.253906 77.609375 127.640625 78.367188 127.640625 Z M 78.367188 127.640625 "/>
<path style=" stroke:none;fill-rule:nonzero;fill:rgb(24.705882%,23.921569%,33.72549%);fill-opacity:1;" d="M 121.898438 158.117188 L 121.988281 158.40625 L 121.996094 158.414062 L 124.730469 166.738281 L 127.878906 176.328125 L 133.800781 194.355469 L 133.859375 197.15625 L 133.859375 197.164062 L 134.296875 219.691406 L 133.078125 222.742188 L 134.449219 227.75 C 134.449219 227.75 133.820312 220.183594 130.433594 224.527344 C 128.515625 227 126.269531 229.523438 124.429688 231.894531 C 127.113281 232.980469 129.839844 233.964844 132.609375 234.84375 C 133.207031 235.035156 133.808594 235.214844 134.414062 235.398438 C 134.542969 235.4375 134.671875 235.476562 134.800781 235.511719 C 143.980469 238.230469 153.472656 239.757812 163.042969 240.054688 C 163.539062 240.070312 164.027344 240.078125 164.5 240.089844 C 164.667969 240.09375 164.832031 240.097656 164.992188 240.097656 C 165.527344 240.101562 166.058594 240.109375 166.59375 240.109375 C 167.675781 240.109375 168.753906 240.09375 169.824219 240.058594 C 177.753906 239.835938 185.640625 238.769531 193.34375 236.878906 C 193.292969 233.695312 193.148438 229.976562 192.941406 226.003906 C 192.847656 224.054688 190.699219 221.945312 190.570312 219.90625 C 190.480469 218.371094 192.40625 216.933594 192.304688 215.375 C 191.65625 205.800781 190.84375 209.476562 190.238281 202.691406 C 190.175781 202.027344 190.121094 201.390625 190.066406 200.785156 C 189.679688 196.429688 189.410156 193.703125 189.410156 193.703125 L 191.984375 177.472656 L 196.027344 151.992188 L 195.714844 151.476562 L 195.367188 151.304688 L 174.046875 140.746094 L 172.890625 137.78125 C 172.199219 136.03125 170.515625 134.875 168.636719 134.863281 L 154.59375 134.808594 C 153.113281 134.800781 151.722656 135.507812 150.859375 136.707031 L 147.054688 141.976562 Z M 121.898438 158.117188 "/>
<path style=" stroke:none;fill-rule:nonzero;fill:rgb(24.705882%,23.921569%,33.72549%);fill-opacity:1;" d="M 137.039062 190.34375 L 133.859375 197.15625 L 131.6875 201.808594 L 127.949219 221.378906 L 126.078125 223.367188 L 124.476562 216.332031 L 107.707031 220.058594 C 107.15625 217 107.558594 220.164062 107.21875 216.808594 C 107.316406 216.710938 107.414062 216.617188 107.515625 216.519531 C 107.785156 216.273438 108.007812 216.039062 108.003906 215.8125 C 107.8125 204.238281 108.386719 184.542969 113.179688 172.609375 C 113.929688 170.664062 114.917969 168.816406 116.125 167.109375 C 116.222656 166.980469 116.3125 166.851562 116.402344 166.722656 C 118.613281 163.625 120.011719 160.578125 121.988281 158.410156 L 121.988281 158.40625 C 122.003906 158.394531 122.015625 158.382812 122.023438 158.371094 C 122.03125 158.367188 122.039062 158.363281 122.042969 158.355469 L 135.648438 151.136719 L 136.230469 167.546875 L 136.644531 179.339844 Z M 137.039062 190.34375 "/>
<path style=" stroke:none;fill-rule:nonzero;fill:rgb(24.705882%,23.921569%,33.72549%);fill-opacity:1;" d="M 186.09375 192.277344 L 190.066406 200.785156 L 191.453125 203.75 L 195.1875 223.316406 L 197.050781 225.300781 L 198.65625 218.269531 L 199.410156 218.113281 L 213.023438 215.292969 L 216.988281 227.902344 C 218.832031 224.828125 218.261719 220.882812 215.621094 218.457031 C 215.351562 218.210938 215.125 217.972656 215.132812 217.75 C 215.355469 204.136719 214.523438 179.28125 207.011719 169.050781 C 204.625 165.800781 203.191406 162.570312 201.109375 160.308594 C 201.101562 160.304688 201.101562 160.296875 201.09375 160.296875 L 196.027344 151.988281 L 195.714844 151.480469 L 195.367188 151.304688 Z M 186.09375 192.277344 "/>
<path style=" stroke:none;fill-rule:nonzero;fill:rgb(100%,71.372549%,71.372549%);fill-opacity:1;" d="M 180.707031 112.113281 C 180.707031 122.4375 172.339844 130.808594 162.019531 130.808594 C 151.703125 130.808594 143.335938 122.4375 143.335938 112.113281 C 143.335938 101.785156 151.703125 93.417969 162.019531 93.417969 C 172.339844 93.417969 180.707031 101.785156 180.707031 112.113281 Z M 180.707031 112.113281 "/>
<path style=" stroke:none;fill-rule:nonzero;fill:rgb(18.431373%,18.039216%,25.490196%);fill-opacity:1;" d="M 187.273438 99.054688 C 186.980469 98.742188 186.574219 98.558594 186.148438 98.554688 L 186.429688 97.773438 C 186.613281 97.273438 186.515625 96.710938 186.171875 96.300781 C 185.828125 95.894531 185.292969 95.703125 184.765625 95.800781 L 183.746094 96 L 183.839844 95.316406 C 183.914062 94.796875 183.710938 94.277344 183.304688 93.949219 C 182.898438 93.617188 182.347656 93.527344 181.855469 93.710938 C 181.414062 93.886719 180.914062 93.851562 180.5 93.617188 C 180.082031 93.386719 179.789062 92.984375 179.695312 92.519531 L 179.335938 90.800781 L 179.300781 90.707031 C 177.5625 87.8125 174.226562 85.707031 170.140625 84.933594 C 166.507812 84.242188 162.777344 84.59375 159.183594 84.925781 C 157.757812 85.058594 156.148438 85.210938 154.808594 86.035156 C 153.667969 86.738281 152.703125 88.148438 152.898438 89.570312 C 149.355469 88.484375 145.558594 90.652344 143.675781 93.390625 C 141.445312 96.644531 141.078125 100.722656 141.019531 103.910156 C 140.859375 111.457031 142.417969 117.628906 145.632812 122.261719 C 145.867188 122.597656 145.925781 123.296875 146.390625 123.53125 L 146.296875 123.375 C 146.816406 123.636719 147.34375 124.054688 147.148438 124.503906 C 146.582031 125.796875 150.339844 128.65625 152.992188 129.597656 C 157.828125 131.324219 164.253906 131.175781 168.773438 130.554688 L 168.933594 129.484375 C 170.566406 129.261719 171.714844 128.839844 172.035156 128.175781 C 172.605469 127.691406 173.09375 127.253906 173.515625 126.851562 L 173.519531 126.847656 C 173.53125 126.835938 173.546875 126.824219 173.554688 126.816406 C 175.597656 124.855469 176.070312 123.742188 176.285156 122.042969 C 176.488281 120.375 176.125 118.683594 175.753906 117.164062 C 183.609375 118.378906 172.65625 108.789062 179.980469 106.933594 C 180.0625 106.90625 180.148438 106.886719 180.234375 106.871094 C 180.449219 106.820312 180.664062 106.769531 180.867188 106.710938 C 181.859375 106.441406 182.804688 106.035156 183.6875 105.507812 C 185.730469 104.261719 186.40625 102.605469 187.464844 100.742188 C 187.777344 100.199219 187.699219 99.515625 187.273438 99.054688 Z M 187.273438 99.054688 "/>
<path style=" stroke:none;fill-rule:nonzero;fill:rgb(18.431373%,18.039216%,25.490196%);fill-opacity:1;" d="M 228.101562 193.609375 C 228.097656 194.34375 228.089844 195.371094 228.058594 196.644531 C 228.054688 196.820312 228.050781 197 228.042969 197.183594 C 227.992188 199.523438 227.9375 201.480469 227.847656 203.660156 C 227.84375 203.808594 227.839844 203.957031 227.832031 204.109375 C 227.714844 207.144531 227.527344 210.683594 227.210938 216.285156 C 226.617188 226.628906 225.585938 217.707031 224.550781 221.335938 C 224.5 221.515625 224.445312 221.730469 224.398438 221.980469 C 224.238281 222.894531 223.976562 223.785156 223.609375 224.636719 C 223.058594 224.964844 222.492188 225.28125 221.933594 225.59375 C 220.347656 226.480469 218.730469 227.332031 217.105469 228.140625 C 216.191406 228.59375 215.273438 229.039062 214.351562 229.46875 C 214.203125 229.535156 214.0625 229.601562 213.917969 229.664062 C 209.195312 231.851562 204.324219 233.710938 199.347656 235.226562 C 198.375 235.523438 197.40625 235.808594 196.425781 236.070312 C 195.402344 236.355469 194.378906 236.625 193.34375 236.878906 C 185.636719 238.769531 177.753906 239.835938 169.824219 240.0625 C 168.753906 240.09375 167.675781 240.109375 166.59375 240.109375 C 166.058594 240.109375 165.527344 240.105469 164.992188 240.097656 C 164.828125 240.097656 164.664062 240.09375 164.503906 240.089844 C 164.027344 240.078125 163.539062 240.070312 163.042969 240.058594 C 153.472656 239.757812 143.980469 238.230469 134.800781 235.511719 L 134.410156 235.398438 C 133.808594 235.214844 133.207031 235.035156 132.609375 234.84375 C 129.839844 233.964844 127.113281 232.984375 124.429688 231.898438 C 122.378906 231.070312 120.351562 230.183594 118.347656 229.238281 C 118.328125 229.230469 118.3125 229.222656 118.296875 229.210938 C 117.878906 229.019531 117.453125 228.816406 117.035156 228.609375 C 116.980469 228.582031 116.921875 228.550781 116.863281 228.523438 C 115.300781 227.757812 113.753906 226.960938 112.222656 226.125 C 110.933594 223.164062 109.125 222.597656 108 219.996094 C 107.671875 219.222656 107.4375 218.417969 107.296875 217.589844 C 107.296875 217.582031 107.289062 217.570312 107.289062 217.558594 C 107.40625 219.121094 106.792969 214.789062 107.285156 217.542969 C 107.28125 217.492188 107.277344 217.4375 107.273438 217.375 C 107.261719 217.222656 107.246094 217.039062 107.21875 216.808594 C 105.78125 202.757812 105.875 186.6875 105.25 173.445312 C 105.207031 172.589844 105.164062 171.769531 105.117188 170.984375 C 105.105469 170.726562 105.089844 170.46875 105.074219 170.21875 C 105.101562 170.144531 105.136719 170.0625 105.171875 169.988281 C 105.179688 169.964844 105.191406 169.945312 105.203125 169.925781 C 105.214844 169.898438 105.230469 169.875 105.246094 169.847656 C 105.253906 169.835938 105.265625 169.820312 105.273438 169.808594 C 105.28125 169.792969 105.285156 169.777344 105.292969 169.765625 C 105.332031 169.707031 105.375 169.644531 105.421875 169.585938 C 105.441406 169.558594 105.457031 169.539062 105.480469 169.515625 C 105.492188 169.496094 105.511719 169.476562 105.53125 169.457031 C 105.542969 169.4375 105.558594 169.421875 105.574219 169.402344 C 105.59375 169.386719 105.609375 169.367188 105.628906 169.34375 C 105.640625 169.332031 105.652344 169.320312 105.664062 169.3125 C 105.695312 169.273438 105.734375 169.238281 105.773438 169.207031 C 105.921875 169.070312 106.082031 168.941406 106.25 168.828125 C 106.308594 168.792969 106.371094 168.753906 106.429688 168.710938 C 106.855469 168.460938 107.296875 168.246094 107.761719 168.074219 C 107.917969 168.015625 108.078125 167.960938 108.25 167.902344 C 108.3125 167.886719 108.371094 167.863281 108.433594 167.84375 C 108.527344 167.8125 108.621094 167.785156 108.714844 167.765625 C 109.195312 167.621094 109.710938 167.5 110.269531 167.386719 C 110.335938 167.375 110.40625 167.359375 110.476562 167.34375 C 110.578125 167.324219 110.683594 167.304688 110.789062 167.289062 C 110.929688 167.265625 111.078125 167.238281 111.222656 167.214844 C 112.46875 167.015625 113.882812 166.871094 115.441406 166.773438 C 115.589844 166.765625 115.734375 166.757812 115.882812 166.75 C 116.054688 166.738281 116.226562 166.730469 116.402344 166.722656 C 116.550781 166.714844 116.699219 166.710938 116.851562 166.707031 C 116.996094 166.699219 117.148438 166.695312 117.304688 166.691406 C 117.726562 166.675781 118.164062 166.664062 118.609375 166.65625 C 119.875 166.628906 121.207031 166.640625 122.609375 166.667969 C 123.257812 166.683594 123.921875 166.703125 124.601562 166.730469 C 124.644531 166.730469 124.6875 166.734375 124.730469 166.734375 C 125.320312 166.757812 125.917969 166.78125 126.527344 166.816406 C 126.957031 166.835938 127.386719 166.855469 127.820312 166.882812 C 128.226562 166.90625 128.636719 166.933594 129.054688 166.960938 C 129.375 166.980469 129.699219 167.003906 130.027344 167.023438 C 130.300781 167.046875 130.578125 167.066406 130.855469 167.082031 L 131.234375 167.109375 C 131.4375 167.125 131.644531 167.136719 131.855469 167.160156 C 132.316406 167.199219 132.777344 167.234375 133.246094 167.273438 C 133.710938 167.316406 134.1875 167.355469 134.660156 167.398438 C 135.132812 167.441406 135.609375 167.488281 136.089844 167.53125 C 136.140625 167.539062 136.1875 167.542969 136.230469 167.546875 C 136.667969 167.589844 137.105469 167.632812 137.542969 167.679688 C 137.644531 167.6875 137.75 167.695312 137.851562 167.710938 C 138.269531 167.75 138.699219 167.800781 139.121094 167.847656 C 139.25 167.859375 139.382812 167.875 139.511719 167.886719 C 139.84375 167.925781 140.171875 167.957031 140.503906 167.996094 C 140.945312 168.042969 141.394531 168.089844 141.828125 168.148438 C 142.167969 168.1875 142.507812 168.226562 142.847656 168.265625 C 143.382812 168.332031 143.921875 168.398438 144.464844 168.46875 C 144.667969 168.492188 144.875 168.519531 145.078125 168.546875 C 146.621094 168.742188 148.183594 168.957031 149.765625 169.175781 C 152.167969 169.515625 154.609375 169.886719 157.066406 170.285156 C 159.527344 170.683594 162.003906 171.105469 164.492188 171.546875 C 165.121094 171.660156 165.75 171.773438 166.382812 171.890625 C 166.667969 171.945312 166.953125 172 167.238281 172.054688 C 167.726562 172.144531 168.210938 172.238281 168.699219 172.328125 C 169.1875 172.421875 169.671875 172.511719 170.160156 172.609375 C 170.738281 172.722656 171.320312 172.835938 171.898438 172.949219 C 175.710938 173.703125 179.5 174.511719 183.199219 175.355469 C 183.808594 175.492188 184.414062 175.636719 185.019531 175.773438 C 186.226562 176.054688 187.421875 176.339844 188.609375 176.628906 C 188.933594 176.703125 189.257812 176.785156 189.582031 176.863281 C 190.386719 177.066406 191.191406 177.265625 191.984375 177.472656 L 192.121094 177.511719 C 192.703125 177.652344 193.273438 177.800781 193.84375 177.949219 C 195.191406 178.304688 196.515625 178.660156 197.816406 179.019531 C 198.679688 179.261719 199.535156 179.503906 200.378906 179.746094 C 201.640625 180.113281 202.878906 180.480469 204.082031 180.855469 C 204.378906 180.945312 204.675781 181.039062 204.96875 181.128906 C 205.851562 181.398438 206.71875 181.675781 207.5625 181.953125 C 208.230469 182.171875 208.886719 182.394531 209.53125 182.617188 C 210.179688 182.839844 210.8125 183.0625 211.429688 183.285156 C 211.828125 183.425781 212.222656 183.578125 212.617188 183.71875 C 213.183594 183.929688 213.742188 184.140625 214.285156 184.351562 C 214.453125 184.414062 214.617188 184.480469 214.78125 184.542969 C 214.886719 184.589844 214.988281 184.625 215.089844 184.667969 C 215.285156 184.75 215.484375 184.824219 215.679688 184.902344 C 215.875 184.980469 216.070312 185.058594 216.261719 185.144531 C 216.449219 185.21875 216.644531 185.296875 216.828125 185.378906 C 217.015625 185.453125 217.203125 185.53125 217.386719 185.617188 C 217.539062 185.679688 217.691406 185.746094 217.839844 185.8125 C 218.136719 185.945312 218.433594 186.074219 218.722656 186.207031 C 218.867188 186.277344 219.007812 186.339844 219.152344 186.40625 L 219.476562 186.558594 C 219.523438 186.582031 219.570312 186.601562 219.617188 186.625 C 219.722656 186.675781 219.832031 186.730469 219.933594 186.777344 C 220.179688 186.890625 220.417969 187.015625 220.652344 187.128906 C 220.964844 187.285156 221.273438 187.445312 221.566406 187.601562 C 221.863281 187.761719 222.152344 187.921875 222.429688 188.074219 C 222.476562 188.101562 222.519531 188.125 222.5625 188.152344 C 222.628906 188.183594 222.691406 188.222656 222.753906 188.257812 C 222.96875 188.378906 223.171875 188.503906 223.378906 188.625 C 223.78125 188.871094 224.160156 189.117188 224.519531 189.359375 C 224.597656 189.414062 224.671875 189.46875 224.753906 189.519531 C 225.015625 189.707031 225.269531 189.890625 225.503906 190.082031 C 225.503906 190.085938 225.503906 190.085938 225.507812 190.085938 C 225.585938 190.144531 225.664062 190.207031 225.738281 190.265625 C 225.800781 190.324219 225.867188 190.375 225.929688 190.433594 C 226.148438 190.621094 226.351562 190.804688 226.535156 190.988281 C 226.597656 191.042969 226.65625 191.105469 226.710938 191.167969 C 226.734375 191.1875 226.757812 191.210938 226.777344 191.234375 C 226.863281 191.320312 226.9375 191.402344 227.007812 191.488281 C 227.019531 191.5 227.03125 191.511719 227.039062 191.523438 C 227.140625 191.640625 227.230469 191.757812 227.320312 191.875 C 227.359375 191.9375 227.40625 191.996094 227.445312 192.054688 C 227.496094 192.125 227.546875 192.199219 227.585938 192.269531 C 227.625 192.332031 227.660156 192.394531 227.691406 192.453125 C 227.78125 192.601562 227.855469 192.761719 227.917969 192.925781 C 227.964844 193.039062 228.003906 193.152344 228.03125 193.269531 C 228.0625 193.382812 228.085938 193.496094 228.101562 193.609375 Z M 228.101562 193.609375 "/>
<use xlink:href="#surface5" mask="url(#mask0)"/>
</g>
</svg>
