<?xml version="1.0" encoding="UTF-8"?>
<svg xmlns="http://www.w3.org/2000/svg" xmlns:xlink="http://www.w3.org/1999/xlink" width="330px" height="572px" viewBox="0 0 330 239" version="1.1">
<defs>
<filter id="alpha" filterUnits="objectBoundingBox" x="0%" y="0%" width="100%" height="100%">
  <feColorMatrix type="matrix" in="SourceGraphic" values="0 0 0 0 1 0 0 0 0 1 0 0 0 0 1 0 0 0 1 0"/>
</filter>
<mask id="mask0">
  <g filter="url(#alpha)">
<rect x="0" y="0" width="330" height="239" style="fill:rgb(0%,0%,0%);fill-opacity:0.2;stroke:none;"/>
  </g>
</mask>
<clipPath id="clip1">
  <rect x="0" y="0" width="330" height="239"/>
</clipPath>
<g id="surface5" clip-path="url(#clip1)">
<path style=" stroke:none;fill-rule:nonzero;fill:rgb(0%,0%,0%);fill-opacity:1;" d="M 228.101562 192.804688 C 228.097656 193.535156 228.089844 194.558594 228.058594 195.824219 C 228.054688 196 228.042969 196.179688 228.039062 196.363281 C 228 198.140625 227.9375 200.332031 227.847656 202.808594 C 227.84375 202.960938 227.839844 203.105469 227.832031 203.257812 C 227.714844 206.28125 227.527344 209.804688 227.210938 215.382812 C 226.617188 225.6875 225.585938 216.800781 224.550781 220.414062 C 221.675781 218.648438 218.523438 216.804688 215.152344 214.90625 C 214.542969 214.5625 213.929688 214.21875 213.308594 213.875 C 206.566406 210.125 199.035156 206.199219 191.175781 202.308594 C 190.863281 202.152344 190.550781 202 190.238281 201.847656 C 172.230469 192.980469 152.574219 184.351562 136.648438 178.59375 C 133.574219 177.480469 130.636719 176.476562 127.878906 175.597656 C 122.066406 173.746094 117.042969 172.449219 113.179688 171.890625 C 109.152344 171.304688 106.371094 171.515625 105.25 172.722656 C 105.207031 171.871094 105.164062 171.054688 105.117188 170.273438 C 105.101562 170.015625 105.085938 169.757812 105.070312 169.507812 C 105.09375 169.441406 105.128906 169.375 105.160156 169.308594 C 105.164062 169.296875 105.167969 169.289062 105.171875 169.277344 C 105.179688 169.257812 105.191406 169.238281 105.203125 169.214844 C 105.214844 169.191406 105.230469 169.164062 105.246094 169.140625 C 105.257812 169.113281 105.273438 169.082031 105.292969 169.058594 C 105.332031 169 105.375 168.9375 105.421875 168.878906 C 105.453125 168.835938 105.492188 168.792969 105.53125 168.753906 C 105.542969 168.734375 105.558594 168.714844 105.574219 168.699219 C 105.59375 168.679688 105.609375 168.660156 105.628906 168.640625 C 105.640625 168.625 105.652344 168.617188 105.664062 168.605469 C 105.695312 168.570312 105.734375 168.535156 105.773438 168.503906 C 105.921875 168.363281 106.082031 168.238281 106.25 168.125 C 106.308594 168.089844 106.371094 168.050781 106.429688 168.007812 C 106.855469 167.757812 107.296875 167.542969 107.761719 167.375 C 107.917969 167.316406 108.078125 167.261719 108.25 167.203125 C 108.3125 167.1875 108.371094 167.164062 108.433594 167.144531 C 108.527344 167.113281 108.621094 167.085938 108.714844 167.066406 C 109.195312 166.921875 109.710938 166.800781 110.269531 166.6875 C 110.4375 166.65625 110.613281 166.621094 110.789062 166.59375 C 110.929688 166.566406 111.078125 166.542969 111.222656 166.515625 C 112.46875 166.320312 113.882812 166.175781 115.441406 166.078125 C 115.589844 166.070312 115.734375 166.0625 115.882812 166.054688 C 116.054688 166.046875 116.226562 166.035156 116.402344 166.027344 C 116.550781 166.019531 116.699219 166.015625 116.851562 166.011719 C 116.996094 166.003906 117.148438 166 117.304688 165.996094 C 117.726562 165.984375 118.164062 165.96875 118.609375 165.960938 C 119.875 165.941406 121.207031 165.949219 122.609375 165.976562 C 123.257812 165.992188 123.921875 166.011719 124.601562 166.039062 C 124.640625 166.039062 124.6875 166.046875 124.730469 166.046875 C 125.320312 166.0625 125.921875 166.089844 126.527344 166.121094 C 126.957031 166.140625 127.386719 166.164062 127.820312 166.1875 C 128.226562 166.210938 128.636719 166.238281 129.054688 166.265625 C 129.375 166.285156 129.699219 166.308594 130.027344 166.328125 C 130.300781 166.351562 130.578125 166.371094 130.855469 166.386719 C 131.1875 166.414062 131.519531 166.4375 131.855469 166.464844 C 132.316406 166.5 132.777344 166.539062 133.246094 166.574219 C 133.710938 166.617188 134.183594 166.660156 134.660156 166.699219 C 135.132812 166.742188 135.609375 166.789062 136.089844 166.835938 C 136.140625 166.839844 136.1875 166.84375 136.230469 166.847656 C 136.667969 166.894531 137.105469 166.933594 137.542969 166.980469 C 139.984375 167.226562 142.496094 167.515625 145.078125 167.847656 C 146.621094 168.042969 148.183594 168.253906 149.765625 168.476562 C 152.167969 168.816406 154.609375 169.183594 157.066406 169.574219 C 159.527344 169.972656 162.003906 170.390625 164.492188 170.832031 C 165.121094 170.945312 165.75 171.058594 166.382812 171.175781 C 167.15625 171.316406 167.925781 171.464844 168.699219 171.609375 C 169.1875 171.703125 169.671875 171.792969 170.160156 171.890625 C 170.738281 172.003906 171.320312 172.117188 171.898438 172.230469 C 175.710938 172.980469 179.5 173.785156 183.199219 174.625 C 183.808594 174.761719 184.414062 174.902344 185.019531 175.042969 C 186.226562 175.320312 187.421875 175.605469 188.609375 175.894531 C 188.933594 175.972656 189.257812 176.050781 189.582031 176.132812 C 190.390625 176.332031 191.191406 176.53125 191.984375 176.734375 L 191.984375 176.738281 C 192.03125 176.746094 192.074219 176.757812 192.121094 176.769531 C 192.699219 176.917969 193.273438 177.0625 193.84375 177.214844 C 195.191406 177.566406 196.515625 177.917969 197.816406 178.273438 C 198.679688 178.515625 199.535156 178.753906 200.378906 178.996094 C 201.640625 179.367188 202.878906 179.734375 204.082031 180.101562 C 204.378906 180.191406 204.675781 180.285156 204.96875 180.371094 C 205.851562 180.648438 206.714844 180.921875 207.5625 181.195312 C 208.230469 181.414062 208.886719 181.632812 209.53125 181.855469 C 210.179688 182.078125 210.8125 182.296875 211.429688 182.519531 C 211.835938 182.664062 212.226562 182.808594 212.617188 182.949219 C 213.1875 183.160156 213.742188 183.367188 214.285156 183.582031 C 214.453125 183.644531 214.617188 183.710938 214.78125 183.773438 C 215.089844 183.890625 215.386719 184.011719 215.679688 184.132812 C 215.875 184.207031 216.070312 184.289062 216.261719 184.371094 C 216.449219 184.445312 216.644531 184.527344 216.828125 184.605469 C 217.015625 184.679688 217.203125 184.761719 217.386719 184.84375 C 217.539062 184.90625 217.691406 184.972656 217.839844 185.039062 C 218.136719 185.167969 218.433594 185.300781 218.722656 185.433594 C 218.867188 185.5 219.007812 185.5625 219.152344 185.628906 L 219.476562 185.78125 C 219.523438 185.804688 219.570312 185.824219 219.617188 185.847656 C 219.972656 186.011719 220.316406 186.179688 220.652344 186.347656 C 220.964844 186.507812 221.273438 186.664062 221.566406 186.820312 C 221.914062 187.003906 222.246094 187.183594 222.5625 187.367188 C 222.628906 187.402344 222.691406 187.4375 222.753906 187.472656 C 222.96875 187.59375 223.171875 187.71875 223.378906 187.839844 C 223.78125 188.085938 224.160156 188.328125 224.519531 188.570312 C 224.871094 188.8125 225.199219 189.050781 225.503906 189.289062 C 225.503906 189.292969 225.503906 189.292969 225.507812 189.292969 C 225.65625 189.410156 225.796875 189.527344 225.929688 189.640625 C 226.148438 189.828125 226.351562 190.007812 226.535156 190.191406 C 226.597656 190.25 226.65625 190.308594 226.710938 190.371094 C 226.734375 190.390625 226.757812 190.414062 226.777344 190.4375 C 226.867188 190.535156 226.953125 190.628906 227.039062 190.726562 C 227.140625 190.84375 227.230469 190.960938 227.320312 191.078125 C 227.359375 191.136719 227.40625 191.195312 227.445312 191.253906 C 227.496094 191.324219 227.546875 191.398438 227.585938 191.46875 C 227.625 191.527344 227.660156 191.589844 227.691406 191.648438 C 227.78125 191.800781 227.855469 191.957031 227.917969 192.121094 C 227.964844 192.234375 228.003906 192.347656 228.03125 192.464844 C 228.0625 192.574219 228.085938 192.6875 228.101562 192.804688 Z M 228.101562 192.804688 "/>
</g>
</defs>
<g id="surface1">
<path style=" stroke:none;fill-rule:nonzero;fill:rgb(94.901961%,94.901961%,94.901961%);fill-opacity:1;" d="M 203.375 30.996094 C 203.375 37.15625 198.363281 42.152344 192.179688 42.152344 C 185.996094 42.152344 180.984375 37.15625 180.984375 30.996094 C 180.984375 24.832031 185.996094 19.839844 192.179688 19.839844 C 198.363281 19.839844 203.375 24.832031 203.375 30.996094 Z M 203.375 30.996094 "/>
<path style=" stroke:none;fill-rule:nonzero;fill:rgb(94.901961%,94.901961%,94.901961%);fill-opacity:1;" d="M 279.03125 207.726562 C 295.671875 195.09375 303.621094 173.871094 298.644531 153.625 C 298.523438 153.121094 298.390625 152.621094 298.253906 152.117188 C 294.953125 140.101562 286.792969 128.679688 274.898438 124.835938 C 264.910156 121.613281 254.007812 124.09375 243.589844 122.808594 C 223.132812 120.292969 207.273438 103.800781 196.117188 86.535156 C 184.957031 69.265625 176.382812 49.941406 161.554688 35.675781 C 137.117188 12.160156 97.25 7.097656 66.949219 22.402344 C 36.648438 37.710938 17.34375 71.667969 18.167969 105.507812 C 18.992188 139.351562 39.152344 171.707031 68.433594 188.875 C 79.191406 195.179688 91.628906 199.648438 104.011719 198.082031 C 114.753906 196.726562 124.515625 190.976562 135.207031 189.269531 C 152.019531 186.582031 168.722656 194.15625 183.261719 202.984375 C 197.800781 211.808594 211.847656 222.269531 228.371094 226.359375 C 244.414062 230.335938 264.289062 218.914062 279.03125 207.726562 Z M 279.03125 207.726562 "/>
<path style=" stroke:none;fill-rule:nonzero;fill:rgb(24.705882%,23.921569%,33.72549%);fill-opacity:1;" d="M 255.121094 23.113281 C 254.757812 22.871094 254.386719 22.640625 254.023438 22.410156 C 243.476562 15.6875 232.175781 10.226562 220.347656 6.140625 L 217.605469 43.839844 L 200.21875 43.839844 L 200.21875 0.640625 C 199.125 0.414062 198.023438 0.199219 196.921875 0 L 196.921875 43.839844 L 176.261719 43.839844 C 152.578125 43.839844 133.378906 24.707031 133.378906 1.105469 C 132.269531 1.34375 131.171875 1.601562 130.074219 1.871094 L 130.074219 43.839844 L 113.246094 43.839844 L 110.632812 7.894531 C 98.480469 12.539062 86.941406 18.644531 76.277344 26.082031 C 76.089844 26.207031 75.90625 26.335938 75.726562 26.460938 C 74.800781 27.109375 73.886719 27.769531 72.976562 28.4375 L 72.976562 172.25 L 122.566406 172.25 L 121.691406 160.15625 L 116.871094 93.742188 L 213.976562 93.742188 L 209.15625 160.15625 L 208.28125 172.25 L 257.324219 172.25 L 257.324219 24.570312 C 256.59375 24.074219 255.859375 23.589844 255.121094 23.113281 Z M 130.074219 82.773438 L 116.074219 82.773438 L 113.484375 47.132812 L 130.074219 47.132812 Z M 196.921875 82.773438 L 173.40625 82.773438 L 173.40625 82.066406 C 173.40625 81.378906 173.132812 80.722656 172.644531 80.238281 C 172.160156 79.753906 171.496094 79.484375 170.808594 79.484375 L 160.585938 79.484375 C 159.15625 79.484375 157.996094 80.640625 157.996094 82.066406 L 157.996094 82.773438 L 133.378906 82.773438 L 133.378906 47.132812 L 196.921875 47.132812 Z M 200.21875 82.773438 L 200.21875 47.132812 L 217.367188 47.132812 L 214.777344 82.773438 Z M 200.21875 82.773438 "/>
<path style=" stroke:none;fill-rule:nonzero;fill:rgb(24.705882%,23.921569%,33.72549%);fill-opacity:1;" d="M 0 181.460938 C 3.644531 185.761719 7.582031 189.804688 11.792969 193.558594 L 318.132812 193.976562 C 322.34375 190.222656 326.28125 186.179688 329.925781 181.878906 Z M 0 181.460938 "/>
<path style=" stroke:none;fill-rule:nonzero;fill:rgb(24.705882%,23.921569%,33.72549%);fill-opacity:1;" d="M 207.742188 142.726562 L 207.742188 178.539062 C 207.742188 179.488281 208.515625 180.257812 209.46875 180.257812 L 262.722656 180.257812 C 263.675781 180.257812 264.449219 179.488281 264.449219 178.539062 L 264.449219 142.726562 C 264.449219 141.777344 263.675781 141.011719 262.722656 141.007812 L 209.46875 141.007812 C 208.515625 141.011719 207.742188 141.777344 207.742188 142.726562 Z M 207.742188 142.726562 "/>
<path style=" stroke:none;fill-rule:nonzero;fill:rgb(0%,67.45098%,100%);fill-opacity:1;" d="M 208.988281 143.171875 L 208.988281 178.097656 C 208.992188 178.605469 209.402344 179.015625 209.914062 179.015625 L 262.277344 179.015625 C 262.789062 179.015625 263.203125 178.605469 263.203125 178.097656 L 263.203125 143.171875 C 263.203125 142.664062 262.789062 142.253906 262.277344 142.25 L 209.914062 142.25 C 209.402344 142.253906 208.988281 142.664062 208.988281 143.171875 Z M 208.988281 143.171875 "/>
<path style=" stroke:none;fill-rule:nonzero;fill:rgb(18.431373%,18.039216%,25.490196%);fill-opacity:1;" d="M 206.625 185.523438 C 206.824219 185.769531 207.125 185.910156 207.441406 185.910156 L 264.464844 185.910156 C 264.78125 185.910156 265.078125 185.769531 265.277344 185.523438 C 265.476562 185.277344 265.554688 184.957031 265.492188 184.648438 L 264.605469 180.460938 C 264.53125 180.113281 264.285156 179.828125 263.953125 179.699219 C 263.832031 179.65625 263.707031 179.628906 263.578125 179.628906 L 208.324219 179.628906 C 208.195312 179.628906 208.070312 179.65625 207.949219 179.699219 C 207.617188 179.828125 207.371094 180.113281 207.296875 180.460938 L 206.414062 184.648438 C 206.347656 184.957031 206.425781 185.277344 206.625 185.523438 Z M 206.625 185.523438 "/>
<path style=" stroke:none;fill-rule:nonzero;fill:rgb(24.705882%,23.921569%,33.72549%);fill-opacity:1;" d="M 262.96875 181.433594 L 261.625 181.433594 C 261.511719 181.433594 261.417969 181.34375 261.417969 181.230469 L 261.417969 180.589844 C 261.417969 180.476562 261.511719 180.386719 261.625 180.386719 L 262.96875 180.386719 C 263.082031 180.386719 263.175781 180.476562 263.175781 180.589844 L 263.175781 181.230469 C 263.175781 181.34375 263.082031 181.433594 262.96875 181.433594 Z M 262.96875 181.433594 "/>
<path style=" stroke:none;fill-rule:nonzero;fill:rgb(24.705882%,23.921569%,33.72549%);fill-opacity:1;" d="M 259.457031 181.433594 L 258.109375 181.433594 C 257.996094 181.433594 257.90625 181.34375 257.90625 181.230469 L 257.90625 180.589844 C 257.90625 180.476562 257.996094 180.386719 258.109375 180.386719 L 259.457031 180.386719 C 259.570312 180.386719 259.664062 180.476562 259.664062 180.589844 L 259.664062 181.230469 C 259.664062 181.34375 259.570312 181.433594 259.457031 181.433594 Z M 259.457031 181.433594 "/>
<path style=" stroke:none;fill-rule:nonzero;fill:rgb(24.705882%,23.921569%,33.72549%);fill-opacity:1;" d="M 255.945312 181.433594 L 254.597656 181.433594 C 254.484375 181.433594 254.394531 181.34375 254.394531 181.230469 L 254.394531 180.589844 C 254.394531 180.476562 254.484375 180.386719 254.597656 180.386719 L 255.945312 180.386719 C 256.058594 180.386719 256.148438 180.476562 256.148438 180.589844 L 256.148438 181.230469 C 256.148438 181.34375 256.058594 181.433594 255.945312 181.433594 Z M 255.945312 181.433594 "/>
<path style=" stroke:none;fill-rule:nonzero;fill:rgb(24.705882%,23.921569%,33.72549%);fill-opacity:1;" d="M 252.433594 181.433594 L 251.085938 181.433594 C 250.972656 181.433594 250.878906 181.34375 250.878906 181.230469 L 250.878906 180.589844 C 250.878906 180.476562 250.972656 180.386719 251.085938 180.386719 L 252.433594 180.386719 C 252.546875 180.386719 252.636719 180.476562 252.636719 180.589844 L 252.636719 181.230469 C 252.636719 181.34375 252.546875 181.433594 252.433594 181.433594 Z M 252.433594 181.433594 "/>
<path style=" stroke:none;fill-rule:nonzero;fill:rgb(24.705882%,23.921569%,33.72549%);fill-opacity:1;" d="M 248.917969 181.433594 L 247.574219 181.433594 C 247.460938 181.433594 247.367188 181.34375 247.367188 181.230469 L 247.367188 180.589844 C 247.367188 180.476562 247.460938 180.386719 247.574219 180.386719 L 248.917969 180.386719 C 249.03125 180.386719 249.125 180.476562 249.125 180.589844 L 249.125 181.230469 C 249.125 181.34375 249.03125 181.433594 248.917969 181.433594 Z M 248.917969 181.433594 "/>
<path style=" stroke:none;fill-rule:nonzero;fill:rgb(24.705882%,23.921569%,33.72549%);fill-opacity:1;" d="M 245.40625 181.433594 L 244.058594 181.433594 C 243.949219 181.433594 243.855469 181.34375 243.855469 181.230469 L 243.855469 180.589844 C 243.855469 180.476562 243.949219 180.386719 244.058594 180.386719 L 245.40625 180.386719 C 245.519531 180.386719 245.613281 180.476562 245.613281 180.589844 L 245.613281 181.230469 C 245.613281 181.34375 245.519531 181.433594 245.40625 181.433594 Z M 245.40625 181.433594 "/>
<path style=" stroke:none;fill-rule:nonzero;fill:rgb(24.705882%,23.921569%,33.72549%);fill-opacity:1;" d="M 241.894531 181.433594 L 240.546875 181.433594 C 240.433594 181.433594 240.34375 181.34375 240.34375 181.230469 L 240.34375 180.589844 C 240.34375 180.476562 240.433594 180.386719 240.546875 180.386719 L 241.894531 180.386719 C 242.007812 180.386719 242.097656 180.476562 242.097656 180.589844 L 242.097656 181.230469 C 242.097656 181.34375 242.007812 181.433594 241.894531 181.433594 Z M 241.894531 181.433594 "/>
<path style=" stroke:none;fill-rule:nonzero;fill:rgb(24.705882%,23.921569%,33.72549%);fill-opacity:1;" d="M 238.382812 181.433594 L 237.035156 181.433594 C 236.921875 181.433594 236.832031 181.34375 236.832031 181.230469 L 236.832031 180.589844 C 236.832031 180.476562 236.921875 180.386719 237.035156 180.386719 L 238.382812 180.386719 C 238.496094 180.386719 238.585938 180.476562 238.585938 180.589844 L 238.585938 181.230469 C 238.585938 181.34375 238.496094 181.433594 238.382812 181.433594 Z M 238.382812 181.433594 "/>
<path style=" stroke:none;fill-rule:nonzero;fill:rgb(24.705882%,23.921569%,33.72549%);fill-opacity:1;" d="M 234.871094 181.433594 L 233.523438 181.433594 C 233.410156 181.433594 233.316406 181.34375 233.316406 181.230469 L 233.316406 180.589844 C 233.316406 180.476562 233.410156 180.386719 233.523438 180.386719 L 234.871094 180.386719 C 234.984375 180.386719 235.074219 180.476562 235.074219 180.589844 L 235.074219 181.230469 C 235.074219 181.34375 234.984375 181.433594 234.871094 181.433594 Z M 234.871094 181.433594 "/>
<path style=" stroke:none;fill-rule:nonzero;fill:rgb(24.705882%,23.921569%,33.72549%);fill-opacity:1;" d="M 231.355469 181.433594 L 230.011719 181.433594 C 229.898438 181.433594 229.804688 181.34375 229.804688 181.230469 L 229.804688 180.589844 C 229.804688 180.476562 229.898438 180.386719 230.011719 180.386719 L 231.355469 180.386719 C 231.46875 180.386719 231.5625 180.476562 231.5625 180.589844 L 231.5625 181.230469 C 231.5625 181.34375 231.46875 181.433594 231.355469 181.433594 Z M 231.355469 181.433594 "/>
<path style=" stroke:none;fill-rule:nonzero;fill:rgb(24.705882%,23.921569%,33.72549%);fill-opacity:1;" d="M 227.84375 181.433594 L 226.496094 181.433594 C 226.382812 181.433594 226.292969 181.34375 226.292969 181.230469 L 226.292969 180.589844 C 226.292969 180.476562 226.382812 180.386719 226.496094 180.386719 L 227.84375 180.386719 C 227.957031 180.386719 228.050781 180.476562 228.050781 180.589844 L 228.050781 181.230469 C 228.050781 181.34375 227.957031 181.433594 227.84375 181.433594 Z M 227.84375 181.433594 "/>
<path style=" stroke:none;fill-rule:nonzero;fill:rgb(24.705882%,23.921569%,33.72549%);fill-opacity:1;" d="M 224.332031 181.433594 L 222.984375 181.433594 C 222.871094 181.433594 222.78125 181.34375 222.78125 181.230469 L 222.78125 180.589844 C 222.78125 180.476562 222.871094 180.386719 222.984375 180.386719 L 224.332031 180.386719 C 224.445312 180.386719 224.535156 180.476562 224.535156 180.589844 L 224.535156 181.230469 C 224.535156 181.34375 224.445312 181.433594 224.332031 181.433594 Z M 224.332031 181.433594 "/>
<path style=" stroke:none;fill-rule:nonzero;fill:rgb(24.705882%,23.921569%,33.72549%);fill-opacity:1;" d="M 220.820312 181.433594 L 219.472656 181.433594 C 219.359375 181.433594 219.269531 181.34375 219.269531 181.230469 L 219.269531 180.589844 C 219.269531 180.476562 219.359375 180.386719 219.472656 180.386719 L 220.820312 180.386719 C 220.933594 180.386719 221.023438 180.476562 221.023438 180.589844 L 221.023438 181.230469 C 221.023438 181.34375 220.933594 181.433594 220.820312 181.433594 Z M 220.820312 181.433594 "/>
<path style=" stroke:none;fill-rule:nonzero;fill:rgb(24.705882%,23.921569%,33.72549%);fill-opacity:1;" d="M 217.304688 181.433594 L 215.960938 181.433594 C 215.847656 181.433594 215.753906 181.34375 215.753906 181.230469 L 215.753906 180.589844 C 215.753906 180.476562 215.847656 180.386719 215.960938 180.386719 L 217.304688 180.386719 C 217.417969 180.386719 217.511719 180.476562 217.511719 180.589844 L 217.511719 181.230469 C 217.511719 181.34375 217.417969 181.433594 217.304688 181.433594 Z M 217.304688 181.433594 "/>
<path style=" stroke:none;fill-rule:nonzero;fill:rgb(24.705882%,23.921569%,33.72549%);fill-opacity:1;" d="M 213.792969 181.433594 L 212.445312 181.433594 C 212.335938 181.433594 212.242188 181.34375 212.242188 181.230469 L 212.242188 180.589844 C 212.242188 180.476562 212.335938 180.386719 212.445312 180.386719 L 213.792969 180.386719 C 213.90625 180.386719 214 180.476562 214 180.589844 L 214 181.230469 C 214 181.34375 213.90625 181.433594 213.792969 181.433594 Z M 213.792969 181.433594 "/>
<path style=" stroke:none;fill-rule:nonzero;fill:rgb(24.705882%,23.921569%,33.72549%);fill-opacity:1;" d="M 210.28125 181.433594 L 208.933594 181.433594 C 208.820312 181.433594 208.730469 181.34375 208.730469 181.230469 L 208.730469 180.589844 C 208.730469 180.476562 208.820312 180.386719 208.933594 180.386719 L 210.28125 180.386719 C 210.394531 180.386719 210.484375 180.476562 210.484375 180.589844 L 210.484375 181.230469 C 210.484375 181.34375 210.394531 181.433594 210.28125 181.433594 Z M 210.28125 181.433594 "/>
<path style=" stroke:none;fill-rule:nonzero;fill:rgb(24.705882%,23.921569%,33.72549%);fill-opacity:1;" d="M 263.011719 183.183594 L 261.664062 183.183594 C 261.550781 183.183594 261.460938 183.09375 261.460938 182.980469 L 261.460938 182.339844 C 261.460938 182.226562 261.550781 182.136719 261.664062 182.136719 L 263.011719 182.136719 C 263.125 182.136719 263.214844 182.226562 263.214844 182.339844 L 263.214844 182.980469 C 263.214844 183.09375 263.125 183.183594 263.011719 183.183594 Z M 263.011719 183.183594 "/>
<path style=" stroke:none;fill-rule:nonzero;fill:rgb(24.705882%,23.921569%,33.72549%);fill-opacity:1;" d="M 259.5 183.183594 L 258.152344 183.183594 C 258.039062 183.183594 257.949219 183.09375 257.949219 182.980469 L 257.949219 182.339844 C 257.949219 182.226562 258.039062 182.136719 258.152344 182.136719 L 259.5 182.136719 C 259.613281 182.136719 259.703125 182.226562 259.703125 182.339844 L 259.703125 182.980469 C 259.703125 183.09375 259.613281 183.183594 259.5 183.183594 Z M 259.5 183.183594 "/>
<path style=" stroke:none;fill-rule:nonzero;fill:rgb(24.705882%,23.921569%,33.72549%);fill-opacity:1;" d="M 255.988281 183.183594 L 254.640625 183.183594 C 254.527344 183.183594 254.433594 183.09375 254.433594 182.980469 L 254.433594 182.339844 C 254.433594 182.226562 254.527344 182.136719 254.640625 182.136719 L 255.988281 182.136719 C 256.097656 182.136719 256.191406 182.226562 256.191406 182.339844 L 256.191406 182.980469 C 256.191406 183.09375 256.097656 183.183594 255.988281 183.183594 Z M 255.988281 183.183594 "/>
<path style=" stroke:none;fill-rule:nonzero;fill:rgb(24.705882%,23.921569%,33.72549%);fill-opacity:1;" d="M 252.472656 183.183594 L 251.128906 183.183594 C 251.015625 183.183594 250.921875 183.09375 250.921875 182.980469 L 250.921875 182.339844 C 250.921875 182.226562 251.015625 182.136719 251.128906 182.136719 L 252.472656 182.136719 C 252.585938 182.136719 252.679688 182.226562 252.679688 182.339844 L 252.679688 182.980469 C 252.679688 183.09375 252.585938 183.183594 252.472656 183.183594 Z M 252.472656 183.183594 "/>
<path style=" stroke:none;fill-rule:nonzero;fill:rgb(24.705882%,23.921569%,33.72549%);fill-opacity:1;" d="M 248.960938 183.183594 L 247.613281 183.183594 C 247.5 183.183594 247.410156 183.09375 247.410156 182.980469 L 247.410156 182.339844 C 247.410156 182.226562 247.5 182.136719 247.613281 182.136719 L 248.960938 182.136719 C 249.074219 182.136719 249.167969 182.226562 249.167969 182.339844 L 249.167969 182.980469 C 249.167969 183.09375 249.074219 183.183594 248.960938 183.183594 Z M 248.960938 183.183594 "/>
<path style=" stroke:none;fill-rule:nonzero;fill:rgb(24.705882%,23.921569%,33.72549%);fill-opacity:1;" d="M 245.449219 183.183594 L 244.101562 183.183594 C 243.988281 183.183594 243.898438 183.09375 243.898438 182.980469 L 243.898438 182.339844 C 243.898438 182.226562 243.988281 182.136719 244.101562 182.136719 L 245.449219 182.136719 C 245.5625 182.136719 245.652344 182.226562 245.652344 182.339844 L 245.652344 182.980469 C 245.652344 183.09375 245.5625 183.183594 245.449219 183.183594 Z M 245.449219 183.183594 "/>
<path style=" stroke:none;fill-rule:nonzero;fill:rgb(24.705882%,23.921569%,33.72549%);fill-opacity:1;" d="M 241.9375 183.183594 L 240.589844 183.183594 C 240.476562 183.183594 240.382812 183.09375 240.382812 182.980469 L 240.382812 182.339844 C 240.382812 182.226562 240.476562 182.136719 240.589844 182.136719 L 241.9375 182.136719 C 242.050781 182.136719 242.140625 182.226562 242.140625 182.339844 L 242.140625 182.980469 C 242.140625 183.09375 242.050781 183.183594 241.9375 183.183594 Z M 241.9375 183.183594 "/>
<path style=" stroke:none;fill-rule:nonzero;fill:rgb(24.705882%,23.921569%,33.72549%);fill-opacity:1;" d="M 238.421875 183.183594 L 237.078125 183.183594 C 236.964844 183.183594 236.871094 183.09375 236.871094 182.980469 L 236.871094 182.339844 C 236.871094 182.226562 236.964844 182.136719 237.078125 182.136719 L 238.421875 182.136719 C 238.535156 182.136719 238.628906 182.226562 238.628906 182.339844 L 238.628906 182.980469 C 238.628906 183.09375 238.535156 183.183594 238.421875 183.183594 Z M 238.421875 183.183594 "/>
<path style=" stroke:none;fill-rule:nonzero;fill:rgb(24.705882%,23.921569%,33.72549%);fill-opacity:1;" d="M 234.910156 183.183594 L 233.5625 183.183594 C 233.449219 183.183594 233.359375 183.09375 233.359375 182.980469 L 233.359375 182.339844 C 233.359375 182.226562 233.449219 182.136719 233.5625 182.136719 L 234.910156 182.136719 C 235.023438 182.136719 235.117188 182.226562 235.117188 182.339844 L 235.117188 182.980469 C 235.117188 183.09375 235.023438 183.183594 234.910156 183.183594 Z M 234.910156 183.183594 "/>
<path style=" stroke:none;fill-rule:nonzero;fill:rgb(24.705882%,23.921569%,33.72549%);fill-opacity:1;" d="M 231.398438 183.183594 L 230.050781 183.183594 C 229.9375 183.183594 229.847656 183.09375 229.847656 182.980469 L 229.847656 182.339844 C 229.847656 182.226562 229.9375 182.136719 230.050781 182.136719 L 231.398438 182.136719 C 231.511719 182.136719 231.601562 182.226562 231.601562 182.339844 L 231.601562 182.980469 C 231.601562 183.09375 231.511719 183.183594 231.398438 183.183594 Z M 231.398438 183.183594 "/>
<path style=" stroke:none;fill-rule:nonzero;fill:rgb(24.705882%,23.921569%,33.72549%);fill-opacity:1;" d="M 227.886719 183.183594 L 226.539062 183.183594 C 226.425781 183.183594 226.335938 183.09375 226.335938 182.980469 L 226.335938 182.339844 C 226.335938 182.226562 226.425781 182.136719 226.539062 182.136719 L 227.886719 182.136719 C 228 182.136719 228.089844 182.226562 228.089844 182.339844 L 228.089844 182.980469 C 228.089844 183.09375 228 183.183594 227.886719 183.183594 Z M 227.886719 183.183594 "/>
<path style=" stroke:none;fill-rule:nonzero;fill:rgb(24.705882%,23.921569%,33.72549%);fill-opacity:1;" d="M 224.375 183.183594 L 223.027344 183.183594 C 222.914062 183.183594 222.820312 183.09375 222.820312 182.980469 L 222.820312 182.339844 C 222.820312 182.226562 222.914062 182.136719 223.027344 182.136719 L 224.375 182.136719 C 224.484375 182.136719 224.578125 182.226562 224.578125 182.339844 L 224.578125 182.980469 C 224.578125 183.09375 224.484375 183.183594 224.375 183.183594 Z M 224.375 183.183594 "/>
<path style=" stroke:none;fill-rule:nonzero;fill:rgb(24.705882%,23.921569%,33.72549%);fill-opacity:1;" d="M 220.859375 183.183594 L 219.515625 183.183594 C 219.402344 183.183594 219.308594 183.09375 219.308594 182.980469 L 219.308594 182.339844 C 219.308594 182.226562 219.402344 182.136719 219.515625 182.136719 L 220.859375 182.136719 C 220.972656 182.136719 221.066406 182.226562 221.066406 182.339844 L 221.066406 182.980469 C 221.066406 183.09375 220.972656 183.183594 220.859375 183.183594 Z M 220.859375 183.183594 "/>
<path style=" stroke:none;fill-rule:nonzero;fill:rgb(24.705882%,23.921569%,33.72549%);fill-opacity:1;" d="M 217.347656 183.183594 L 216 183.183594 C 215.886719 183.183594 215.796875 183.09375 215.796875 182.980469 L 215.796875 182.339844 C 215.796875 182.226562 215.886719 182.136719 216 182.136719 L 217.347656 182.136719 C 217.460938 182.136719 217.554688 182.226562 217.554688 182.339844 L 217.554688 182.980469 C 217.554688 183.09375 217.460938 183.183594 217.347656 183.183594 Z M 217.347656 183.183594 "/>
<path style=" stroke:none;fill-rule:nonzero;fill:rgb(24.705882%,23.921569%,33.72549%);fill-opacity:1;" d="M 213.835938 183.183594 L 212.488281 183.183594 C 212.375 183.183594 212.285156 183.09375 212.285156 182.980469 L 212.285156 182.339844 C 212.285156 182.226562 212.375 182.136719 212.488281 182.136719 L 213.835938 182.136719 C 213.949219 182.136719 214.039062 182.226562 214.039062 182.339844 L 214.039062 182.980469 C 214.039062 183.09375 213.949219 183.183594 213.835938 183.183594 Z M 213.835938 183.183594 "/>
<path style=" stroke:none;fill-rule:nonzero;fill:rgb(24.705882%,23.921569%,33.72549%);fill-opacity:1;" d="M 210.324219 183.183594 L 208.976562 183.183594 C 208.863281 183.183594 208.769531 183.09375 208.769531 182.980469 L 208.769531 182.339844 C 208.769531 182.226562 208.863281 182.136719 208.976562 182.136719 L 210.324219 182.136719 C 210.4375 182.136719 210.527344 182.226562 210.527344 182.339844 L 210.527344 182.980469 C 210.527344 183.09375 210.4375 183.183594 210.324219 183.183594 Z M 210.324219 183.183594 "/>
<path style=" stroke:none;fill-rule:nonzero;fill:rgb(24.705882%,23.921569%,33.72549%);fill-opacity:1;" d="M 246.152344 185.285156 L 232.511719 185.285156 C 232.398438 185.285156 232.304688 185.195312 232.304688 185.082031 L 232.304688 184.441406 C 232.304688 184.328125 232.398438 184.234375 232.511719 184.234375 L 246.152344 184.234375 C 246.265625 184.234375 246.355469 184.328125 246.355469 184.441406 L 246.355469 185.082031 C 246.355469 185.195312 246.265625 185.285156 246.152344 185.285156 Z M 246.152344 185.285156 "/>
<path style=" stroke:none;fill-rule:nonzero;fill:rgb(100%,100%,100%);fill-opacity:1;" d="M 216.867188 149.890625 L 218.058594 149.890625 C 218.417969 149.890625 218.710938 150.183594 218.710938 150.542969 C 218.710938 150.90625 218.417969 151.195312 218.058594 151.195312 L 216.867188 151.195312 C 216.503906 151.195312 216.210938 150.90625 216.210938 150.542969 C 216.210938 150.183594 216.503906 149.890625 216.867188 149.890625 Z M 216.867188 149.890625 "/>
<path style=" stroke:none;fill-rule:nonzero;fill:rgb(100%,100%,100%);fill-opacity:1;" d="M 230.503906 149.890625 L 231.695312 149.890625 C 232.058594 149.890625 232.351562 150.183594 232.351562 150.542969 C 232.351562 150.90625 232.058594 151.195312 231.695312 151.195312 L 230.503906 151.195312 C 230.140625 151.195312 229.847656 150.90625 229.847656 150.542969 C 229.847656 150.183594 230.140625 149.890625 230.503906 149.890625 Z M 230.503906 149.890625 "/>
<path style=" stroke:none;fill-rule:nonzero;fill:rgb(100%,100%,100%);fill-opacity:1;" d="M 234.367188 149.890625 L 235.558594 149.890625 C 235.921875 149.890625 236.214844 150.183594 236.214844 150.542969 C 236.214844 150.90625 235.921875 151.195312 235.558594 151.195312 L 234.367188 151.195312 C 234.003906 151.195312 233.710938 150.90625 233.710938 150.542969 C 233.710938 150.183594 234.003906 149.890625 234.367188 149.890625 Z M 234.367188 149.890625 "/>
<path style=" stroke:none;fill-rule:nonzero;fill:rgb(100%,100%,100%);fill-opacity:1;" d="M 220.574219 149.78125 L 227.984375 149.78125 C 228.347656 149.78125 228.640625 150.074219 228.640625 150.433594 C 228.640625 150.796875 228.347656 151.085938 227.984375 151.085938 L 220.574219 151.085938 C 220.214844 151.085938 219.921875 150.796875 219.921875 150.433594 C 219.921875 150.074219 220.214844 149.78125 220.574219 149.78125 Z M 220.574219 149.78125 "/>
<path style=" stroke:none;fill-rule:nonzero;fill:rgb(100%,100%,100%);fill-opacity:1;" d="M 238.757812 149.78125 L 246.167969 149.78125 C 246.53125 149.78125 246.824219 150.074219 246.824219 150.433594 C 246.824219 150.796875 246.53125 151.085938 246.167969 151.085938 L 238.757812 151.085938 C 238.398438 151.085938 238.105469 150.796875 238.105469 150.433594 C 238.105469 150.074219 238.398438 149.78125 238.757812 149.78125 Z M 238.757812 149.78125 "/>
<path style=" stroke:none;fill-rule:nonzero;fill:rgb(100%,100%,100%);fill-opacity:1;" d="M 220.503906 152.835938 L 221.695312 152.835938 C 222.054688 152.835938 222.347656 153.128906 222.347656 153.488281 C 222.347656 153.847656 222.054688 154.140625 221.695312 154.140625 L 220.503906 154.140625 C 220.140625 154.140625 219.847656 153.847656 219.847656 153.488281 C 219.847656 153.128906 220.140625 152.835938 220.503906 152.835938 Z M 220.503906 152.835938 "/>
<path style=" stroke:none;fill-rule:nonzero;fill:rgb(100%,100%,100%);fill-opacity:1;" d="M 234.140625 152.835938 L 235.332031 152.835938 C 235.695312 152.835938 235.988281 153.128906 235.988281 153.488281 C 235.988281 153.847656 235.695312 154.140625 235.332031 154.140625 L 234.140625 154.140625 C 233.777344 154.140625 233.484375 153.847656 233.484375 153.488281 C 233.484375 153.128906 233.777344 152.835938 234.140625 152.835938 Z M 234.140625 152.835938 "/>
<path style=" stroke:none;fill-rule:nonzero;fill:rgb(100%,100%,100%);fill-opacity:1;" d="M 238.003906 152.835938 L 239.195312 152.835938 C 239.558594 152.835938 239.851562 153.128906 239.851562 153.488281 C 239.851562 153.847656 239.558594 154.140625 239.195312 154.140625 L 238.003906 154.140625 C 237.640625 154.140625 237.347656 153.847656 237.347656 153.488281 C 237.347656 153.128906 237.640625 152.835938 238.003906 152.835938 Z M 238.003906 152.835938 "/>
<path style=" stroke:none;fill-rule:nonzero;fill:rgb(100%,100%,100%);fill-opacity:1;" d="M 224.210938 152.726562 L 231.621094 152.726562 C 231.984375 152.726562 232.277344 153.019531 232.277344 153.378906 C 232.277344 153.738281 231.984375 154.03125 231.621094 154.03125 L 224.210938 154.03125 C 223.851562 154.03125 223.558594 153.738281 223.558594 153.378906 C 223.558594 153.019531 223.851562 152.726562 224.210938 152.726562 Z M 224.210938 152.726562 "/>
<path style=" stroke:none;fill-rule:nonzero;fill:rgb(100%,100%,100%);fill-opacity:1;" d="M 242.394531 152.726562 L 249.804688 152.726562 C 250.167969 152.726562 250.460938 153.019531 250.460938 153.378906 C 250.460938 153.738281 250.167969 154.03125 249.804688 154.03125 L 242.394531 154.03125 C 242.035156 154.03125 241.742188 153.738281 241.742188 153.378906 C 241.742188 153.019531 242.035156 152.726562 242.394531 152.726562 Z M 242.394531 152.726562 "/>
<path style=" stroke:none;fill-rule:nonzero;fill:rgb(100%,100%,100%);fill-opacity:1;" d="M 224.140625 155.78125 L 225.332031 155.78125 C 225.691406 155.78125 225.984375 156.074219 225.984375 156.433594 C 225.984375 156.792969 225.691406 157.085938 225.332031 157.085938 L 224.140625 157.085938 C 223.777344 157.085938 223.484375 156.792969 223.484375 156.433594 C 223.484375 156.074219 223.777344 155.78125 224.140625 155.78125 Z M 224.140625 155.78125 "/>
<path style=" stroke:none;fill-rule:nonzero;fill:rgb(100%,100%,100%);fill-opacity:1;" d="M 237.777344 155.78125 L 238.96875 155.78125 C 239.332031 155.78125 239.625 156.074219 239.625 156.433594 C 239.625 156.792969 239.332031 157.085938 238.96875 157.085938 L 237.777344 157.085938 C 237.414062 157.085938 237.121094 156.792969 237.121094 156.433594 C 237.121094 156.074219 237.414062 155.78125 237.777344 155.78125 Z M 237.777344 155.78125 "/>
<path style=" stroke:none;fill-rule:nonzero;fill:rgb(100%,100%,100%);fill-opacity:1;" d="M 241.640625 155.78125 L 242.832031 155.78125 C 243.195312 155.78125 243.488281 156.074219 243.488281 156.433594 C 243.488281 156.792969 243.195312 157.085938 242.832031 157.085938 L 241.640625 157.085938 C 241.277344 157.085938 240.984375 156.792969 240.984375 156.433594 C 240.984375 156.074219 241.277344 155.78125 241.640625 155.78125 Z M 241.640625 155.78125 "/>
<path style=" stroke:none;fill-rule:nonzero;fill:rgb(100%,100%,100%);fill-opacity:1;" d="M 227.847656 155.671875 L 235.257812 155.671875 C 235.621094 155.671875 235.914062 155.964844 235.914062 156.324219 C 235.914062 156.683594 235.621094 156.976562 235.257812 156.976562 L 227.847656 156.976562 C 227.488281 156.976562 227.195312 156.683594 227.195312 156.324219 C 227.195312 155.964844 227.488281 155.671875 227.847656 155.671875 Z M 227.847656 155.671875 "/>
<path style=" stroke:none;fill-rule:nonzero;fill:rgb(100%,100%,100%);fill-opacity:1;" d="M 246.03125 155.671875 L 253.441406 155.671875 C 253.804688 155.671875 254.097656 155.964844 254.097656 156.324219 C 254.097656 156.683594 253.804688 156.976562 253.441406 156.976562 L 246.03125 156.976562 C 245.671875 156.976562 245.378906 156.683594 245.378906 156.324219 C 245.378906 155.964844 245.671875 155.671875 246.03125 155.671875 Z M 246.03125 155.671875 "/>
<path style=" stroke:none;fill-rule:nonzero;fill:rgb(100%,100%,100%);fill-opacity:1;" d="M 227.777344 158.726562 L 228.96875 158.726562 C 229.328125 158.726562 229.621094 159.015625 229.621094 159.378906 C 229.621094 159.738281 229.328125 160.03125 228.96875 160.03125 L 227.777344 160.03125 C 227.414062 160.03125 227.121094 159.738281 227.121094 159.378906 C 227.121094 159.015625 227.414062 158.726562 227.777344 158.726562 Z M 227.777344 158.726562 "/>
<path style=" stroke:none;fill-rule:nonzero;fill:rgb(100%,100%,100%);fill-opacity:1;" d="M 241.414062 158.726562 L 242.605469 158.726562 C 242.96875 158.726562 243.261719 159.015625 243.261719 159.378906 C 243.261719 159.738281 242.96875 160.03125 242.605469 160.03125 L 241.414062 160.03125 C 241.050781 160.03125 240.757812 159.738281 240.757812 159.378906 C 240.757812 159.015625 241.050781 158.726562 241.414062 158.726562 Z M 241.414062 158.726562 "/>
<path style=" stroke:none;fill-rule:nonzero;fill:rgb(100%,100%,100%);fill-opacity:1;" d="M 245.277344 158.726562 L 246.46875 158.726562 C 246.832031 158.726562 247.125 159.015625 247.125 159.378906 C 247.125 159.738281 246.832031 160.03125 246.46875 160.03125 L 245.277344 160.03125 C 244.914062 160.03125 244.621094 159.738281 244.621094 159.378906 C 244.621094 159.015625 244.914062 158.726562 245.277344 158.726562 Z M 245.277344 158.726562 "/>
<path style=" stroke:none;fill-rule:nonzero;fill:rgb(100%,100%,100%);fill-opacity:1;" d="M 231.484375 158.617188 L 238.894531 158.617188 C 239.257812 158.617188 239.550781 158.90625 239.550781 159.269531 C 239.550781 159.628906 239.257812 159.921875 238.894531 159.921875 L 231.484375 159.921875 C 231.125 159.921875 230.832031 159.628906 230.832031 159.269531 C 230.832031 158.90625 231.125 158.617188 231.484375 158.617188 Z M 231.484375 158.617188 "/>
<path style=" stroke:none;fill-rule:nonzero;fill:rgb(100%,100%,100%);fill-opacity:1;" d="M 230.503906 170.433594 L 231.695312 170.433594 C 232.058594 170.433594 232.351562 170.726562 232.351562 171.085938 C 232.351562 171.445312 232.058594 171.738281 231.695312 171.738281 L 230.503906 171.738281 C 230.140625 171.738281 229.847656 171.445312 229.847656 171.085938 C 229.847656 170.726562 230.140625 170.433594 230.503906 170.433594 Z M 230.503906 170.433594 "/>
<path style=" stroke:none;fill-rule:nonzero;fill:rgb(100%,100%,100%);fill-opacity:1;" d="M 234.367188 170.433594 L 235.558594 170.433594 C 235.921875 170.433594 236.214844 170.726562 236.214844 171.085938 C 236.214844 171.445312 235.921875 171.738281 235.558594 171.738281 L 234.367188 171.738281 C 234.003906 171.738281 233.710938 171.445312 233.710938 171.085938 C 233.710938 170.726562 234.003906 170.433594 234.367188 170.433594 Z M 234.367188 170.433594 "/>
<path style=" stroke:none;fill-rule:nonzero;fill:rgb(100%,100%,100%);fill-opacity:1;" d="M 238.757812 170.542969 L 246.167969 170.542969 C 246.53125 170.542969 246.824219 170.832031 246.824219 171.195312 C 246.824219 171.554688 246.53125 171.847656 246.167969 171.847656 L 238.757812 171.847656 C 238.398438 171.847656 238.105469 171.554688 238.105469 171.195312 C 238.105469 170.832031 238.398438 170.542969 238.757812 170.542969 Z M 238.757812 170.542969 "/>
<path style=" stroke:none;fill-rule:nonzero;fill:rgb(100%,100%,100%);fill-opacity:1;" d="M 216.867188 170.433594 L 218.058594 170.433594 C 218.417969 170.433594 218.710938 170.726562 218.710938 171.085938 C 218.710938 171.445312 218.417969 171.738281 218.058594 171.738281 L 216.867188 171.738281 C 216.503906 171.738281 216.210938 171.445312 216.210938 171.085938 C 216.210938 170.726562 216.503906 170.433594 216.867188 170.433594 Z M 216.867188 170.433594 "/>
<path style=" stroke:none;fill-rule:nonzero;fill:rgb(100%,100%,100%);fill-opacity:1;" d="M 220.574219 170.542969 L 227.984375 170.542969 C 228.347656 170.542969 228.640625 170.832031 228.640625 171.195312 C 228.640625 171.554688 228.347656 171.847656 227.984375 171.847656 L 220.574219 171.847656 C 220.214844 171.847656 219.921875 171.554688 219.921875 171.195312 C 219.921875 170.832031 220.214844 170.542969 220.574219 170.542969 Z M 220.574219 170.542969 "/>
<path style=" stroke:none;fill-rule:nonzero;fill:rgb(100%,100%,100%);fill-opacity:1;" d="M 220.503906 167.488281 L 221.695312 167.488281 C 222.054688 167.488281 222.347656 167.78125 222.347656 168.140625 C 222.347656 168.5 222.054688 168.792969 221.695312 168.792969 L 220.503906 168.792969 C 220.140625 168.792969 219.847656 168.5 219.847656 168.140625 C 219.847656 167.78125 220.140625 167.488281 220.503906 167.488281 Z M 220.503906 167.488281 "/>
<path style=" stroke:none;fill-rule:nonzero;fill:rgb(100%,100%,100%);fill-opacity:1;" d="M 234.140625 167.488281 L 235.332031 167.488281 C 235.695312 167.488281 235.988281 167.78125 235.988281 168.140625 C 235.988281 168.5 235.695312 168.792969 235.332031 168.792969 L 234.140625 168.792969 C 233.777344 168.792969 233.484375 168.5 233.484375 168.140625 C 233.484375 167.78125 233.777344 167.488281 234.140625 167.488281 Z M 234.140625 167.488281 "/>
<path style=" stroke:none;fill-rule:nonzero;fill:rgb(100%,100%,100%);fill-opacity:1;" d="M 238.003906 167.488281 L 239.195312 167.488281 C 239.558594 167.488281 239.851562 167.78125 239.851562 168.140625 C 239.851562 168.5 239.558594 168.792969 239.195312 168.792969 L 238.003906 168.792969 C 237.640625 168.792969 237.347656 168.5 237.347656 168.140625 C 237.347656 167.78125 237.640625 167.488281 238.003906 167.488281 Z M 238.003906 167.488281 "/>
<path style=" stroke:none;fill-rule:nonzero;fill:rgb(100%,100%,100%);fill-opacity:1;" d="M 224.210938 167.597656 L 231.621094 167.597656 C 231.984375 167.597656 232.277344 167.890625 232.277344 168.25 C 232.277344 168.609375 231.984375 168.902344 231.621094 168.902344 L 224.210938 168.902344 C 223.851562 168.902344 223.558594 168.609375 223.558594 168.25 C 223.558594 167.890625 223.851562 167.597656 224.210938 167.597656 Z M 224.210938 167.597656 "/>
<path style=" stroke:none;fill-rule:nonzero;fill:rgb(100%,100%,100%);fill-opacity:1;" d="M 224.140625 164.542969 L 225.332031 164.542969 C 225.691406 164.542969 225.984375 164.835938 225.984375 165.195312 C 225.984375 165.554688 225.691406 165.847656 225.332031 165.847656 L 224.140625 165.847656 C 223.777344 165.847656 223.484375 165.554688 223.484375 165.195312 C 223.484375 164.835938 223.777344 164.542969 224.140625 164.542969 Z M 224.140625 164.542969 "/>
<path style=" stroke:none;fill-rule:nonzero;fill:rgb(100%,100%,100%);fill-opacity:1;" d="M 237.777344 164.542969 L 238.96875 164.542969 C 239.332031 164.542969 239.625 164.835938 239.625 165.195312 C 239.625 165.554688 239.332031 165.847656 238.96875 165.847656 L 237.777344 165.847656 C 237.414062 165.847656 237.121094 165.554688 237.121094 165.195312 C 237.121094 164.835938 237.414062 164.542969 237.777344 164.542969 Z M 237.777344 164.542969 "/>
<path style=" stroke:none;fill-rule:nonzero;fill:rgb(100%,100%,100%);fill-opacity:1;" d="M 241.640625 164.542969 L 242.832031 164.542969 C 243.195312 164.542969 243.488281 164.835938 243.488281 165.195312 C 243.488281 165.554688 243.195312 165.847656 242.832031 165.847656 L 241.640625 165.847656 C 241.277344 165.847656 240.984375 165.554688 240.984375 165.195312 C 240.984375 164.835938 241.277344 164.542969 241.640625 164.542969 Z M 241.640625 164.542969 "/>
<path style=" stroke:none;fill-rule:nonzero;fill:rgb(100%,100%,100%);fill-opacity:1;" d="M 227.847656 164.652344 L 235.257812 164.652344 C 235.621094 164.652344 235.914062 164.945312 235.914062 165.304688 C 235.914062 165.664062 235.621094 165.957031 235.257812 165.957031 L 227.847656 165.957031 C 227.488281 165.957031 227.195312 165.664062 227.195312 165.304688 C 227.195312 164.945312 227.488281 164.652344 227.847656 164.652344 Z M 227.847656 164.652344 "/>
<path style=" stroke:none;fill-rule:nonzero;fill:rgb(100%,100%,100%);fill-opacity:1;" d="M 227.777344 161.601562 L 228.96875 161.601562 C 229.328125 161.601562 229.621094 161.890625 229.621094 162.253906 C 229.621094 162.613281 229.328125 162.902344 228.96875 162.902344 L 227.777344 162.902344 C 227.414062 162.902344 227.121094 162.613281 227.121094 162.253906 C 227.121094 161.890625 227.414062 161.601562 227.777344 161.601562 Z M 227.777344 161.601562 "/>
<path style=" stroke:none;fill-rule:nonzero;fill:rgb(100%,100%,100%);fill-opacity:1;" d="M 241.414062 161.601562 L 242.605469 161.601562 C 242.96875 161.601562 243.261719 161.890625 243.261719 162.253906 C 243.261719 162.613281 242.96875 162.902344 242.605469 162.902344 L 241.414062 162.902344 C 241.050781 162.902344 240.757812 162.613281 240.757812 162.253906 C 240.757812 161.890625 241.050781 161.601562 241.414062 161.601562 Z M 241.414062 161.601562 "/>
<path style=" stroke:none;fill-rule:nonzero;fill:rgb(100%,100%,100%);fill-opacity:1;" d="M 245.277344 161.601562 L 246.46875 161.601562 C 246.832031 161.601562 247.125 161.890625 247.125 162.253906 C 247.125 162.613281 246.832031 162.902344 246.46875 162.902344 L 245.277344 162.902344 C 244.914062 162.902344 244.621094 162.613281 244.621094 162.253906 C 244.621094 161.890625 244.914062 161.601562 245.277344 161.601562 Z M 245.277344 161.601562 "/>
<path style=" stroke:none;fill-rule:nonzero;fill:rgb(100%,100%,100%);fill-opacity:1;" d="M 231.484375 161.707031 L 238.894531 161.707031 C 239.257812 161.707031 239.550781 162 239.550781 162.359375 C 239.550781 162.722656 239.257812 163.011719 238.894531 163.011719 L 231.484375 163.011719 C 231.125 163.011719 230.832031 162.722656 230.832031 162.359375 C 230.832031 162 231.125 161.707031 231.484375 161.707031 Z M 231.484375 161.707031 "/>
<path style=" stroke:none;fill-rule:nonzero;fill:rgb(100%,71.372549%,71.372549%);fill-opacity:1;" d="M 211.71875 204.9375 L 206.121094 196.121094 L 223.691406 182.164062 L 230.945312 174.160156 C 232.859375 172.042969 235.761719 171.101562 238.5625 171.6875 C 241.363281 172.277344 243.640625 174.304688 244.535156 177.011719 C 245.894531 181.109375 243.75 185.542969 239.683594 187.035156 L 228.21875 191.246094 Z M 211.71875 204.9375 "/>
<path style=" stroke:none;fill-rule:nonzero;fill:rgb(18.431373%,18.039216%,25.490196%);fill-opacity:1;" d="M 80.378906 141.011719 L 80.378906 183.863281 L 110.507812 183.863281 L 110.507812 141.011719 C 110.507812 140.378906 110.09375 139.816406 109.488281 139.632812 C 109.347656 139.585938 109.203125 139.5625 109.054688 139.566406 L 81.832031 139.566406 C 81.03125 139.5625 80.378906 140.210938 80.378906 141.011719 Z M 92.136719 155.734375 C 92.152344 153.976562 93.585938 152.558594 95.351562 152.558594 C 97.117188 152.558594 98.550781 153.976562 98.566406 155.734375 L 98.566406 160.707031 C 98.558594 162.46875 97.121094 163.894531 95.351562 163.894531 C 93.582031 163.894531 92.144531 162.46875 92.136719 160.707031 Z M 92.136719 155.734375 "/>
<path style=" stroke:none;fill-rule:nonzero;fill:rgb(24.705882%,23.921569%,33.72549%);fill-opacity:1;" d="M 80.285156 182.492188 L 80.285156 186.625 C 80.289062 187.070312 80.648438 187.433594 81.09375 187.4375 L 109.789062 187.4375 C 110.238281 187.433594 110.597656 187.070312 110.597656 186.625 L 110.597656 182.492188 Z M 80.285156 182.492188 "/>
<path style=" stroke:none;fill-rule:nonzero;fill:rgb(24.705882%,23.921569%,33.72549%);fill-opacity:1;" d="M 32.984375 76.445312 L 32.984375 154.691406 C 32.984375 156.765625 34.671875 158.449219 36.757812 158.449219 L 153.117188 158.449219 C 155.199219 158.449219 156.890625 156.765625 156.890625 154.691406 L 156.890625 76.445312 C 156.886719 74.371094 155.199219 72.691406 153.117188 72.691406 L 36.757812 72.691406 C 34.675781 72.691406 32.988281 74.371094 32.984375 76.445312 Z M 32.984375 76.445312 "/>
<path style=" stroke:none;fill-rule:nonzero;fill:rgb(100%,100%,100%);fill-opacity:1;" d="M 35.714844 77.421875 L 35.714844 153.726562 C 35.714844 154.835938 36.617188 155.734375 37.730469 155.734375 L 152.148438 155.734375 C 153.261719 155.734375 154.164062 154.835938 154.164062 153.726562 L 154.164062 77.421875 C 154.164062 76.308594 153.261719 75.410156 152.148438 75.40625 L 37.730469 75.40625 C 36.617188 75.410156 35.714844 76.308594 35.714844 77.421875 Z M 35.714844 77.421875 "/>
<path style=" stroke:none;fill-rule:nonzero;fill:rgb(18.431373%,18.039216%,25.490196%);fill-opacity:1;" d="M 56.945312 187.15625 C 57.183594 187.449219 57.542969 187.621094 57.917969 187.621094 L 125.992188 187.621094 C 126.367188 187.617188 126.726562 187.449219 126.960938 187.15625 C 127.199219 186.867188 127.292969 186.484375 127.214844 186.117188 L 126.160156 181.113281 C 126.070312 180.699219 125.777344 180.359375 125.378906 180.207031 C 125.238281 180.152344 125.085938 180.125 124.933594 180.125 L 58.972656 180.125 C 58.820312 180.125 58.667969 180.152344 58.527344 180.207031 C 58.128906 180.359375 57.835938 180.699219 57.746094 181.113281 L 56.691406 186.117188 C 56.613281 186.484375 56.710938 186.863281 56.945312 187.15625 Z M 56.945312 187.15625 "/>
<path style=" stroke:none;fill-rule:nonzero;fill:rgb(24.705882%,23.921569%,33.72549%);fill-opacity:1;" d="M 148.433594 85.917969 L 41.375 85.917969 C 41.144531 85.914062 40.957031 85.722656 40.957031 85.492188 C 40.957031 85.261719 41.144531 85.074219 41.375 85.070312 L 148.433594 85.070312 C 148.667969 85.074219 148.851562 85.261719 148.851562 85.492188 C 148.851562 85.722656 148.667969 85.914062 148.433594 85.917969 Z M 148.433594 85.917969 "/>
<path style=" stroke:none;fill-rule:nonzero;fill:rgb(24.705882%,23.921569%,33.72549%);fill-opacity:1;" d="M 51.15625 80.363281 C 51.15625 78.957031 50.039062 77.820312 48.660156 77.820312 C 47.285156 77.820312 46.167969 78.957031 46.167969 80.363281 C 46.167969 81.765625 47.285156 82.902344 48.660156 82.902344 C 50.039062 82.902344 51.15625 81.765625 51.15625 80.363281 Z M 51.15625 80.363281 "/>
<path style=" stroke:none;fill-rule:nonzero;fill:rgb(24.705882%,23.921569%,33.72549%);fill-opacity:1;" d="M 59.777344 80.363281 C 59.777344 78.957031 58.660156 77.820312 57.28125 77.820312 C 55.902344 77.820312 54.785156 78.957031 54.785156 80.363281 C 54.785156 81.765625 55.902344 82.902344 57.28125 82.902344 C 58.660156 82.902344 59.777344 81.765625 59.777344 80.363281 Z M 59.777344 80.363281 "/>
<path style=" stroke:none;fill-rule:nonzero;fill:rgb(24.705882%,23.921569%,33.72549%);fill-opacity:1;" d="M 68.394531 80.363281 C 68.394531 78.957031 67.277344 77.820312 65.902344 77.820312 C 64.523438 77.820312 63.40625 78.957031 63.40625 80.363281 C 63.40625 81.765625 64.523438 82.902344 65.902344 82.902344 C 67.277344 82.902344 68.394531 81.765625 68.394531 80.363281 Z M 68.394531 80.363281 "/>
<path style=" stroke:none;fill-rule:nonzero;fill:rgb(24.705882%,23.921569%,33.72549%);fill-opacity:1;" d="M 143.246094 78.449219 L 137.121094 78.449219 C 136.871094 78.453125 136.667969 78.660156 136.667969 78.910156 C 136.667969 79.160156 136.871094 79.367188 137.121094 79.371094 L 143.246094 79.371094 C 143.496094 79.367188 143.703125 79.164062 143.703125 78.910156 C 143.703125 78.65625 143.496094 78.453125 143.246094 78.449219 Z M 143.246094 78.449219 "/>
<path style=" stroke:none;fill-rule:nonzero;fill:rgb(24.705882%,23.921569%,33.72549%);fill-opacity:1;" d="M 143.246094 80.183594 L 137.121094 80.183594 C 136.871094 80.1875 136.667969 80.394531 136.667969 80.644531 C 136.667969 80.894531 136.871094 81.101562 137.121094 81.105469 L 143.246094 81.105469 C 143.5 81.101562 143.703125 80.898438 143.703125 80.644531 C 143.703125 80.390625 143.5 80.183594 143.246094 80.183594 Z M 143.246094 80.183594 "/>
<path style=" stroke:none;fill-rule:nonzero;fill:rgb(24.705882%,23.921569%,33.72549%);fill-opacity:1;" d="M 143.246094 81.917969 L 137.121094 81.917969 C 136.871094 81.921875 136.667969 82.128906 136.667969 82.378906 C 136.667969 82.628906 136.871094 82.832031 137.121094 82.839844 L 143.246094 82.839844 C 143.496094 82.835938 143.703125 82.628906 143.703125 82.378906 C 143.703125 82.125 143.496094 81.917969 143.246094 81.917969 Z M 143.246094 81.917969 "/>
<path style=" stroke:none;fill-rule:nonzero;fill:rgb(18.431373%,18.039216%,25.490196%);fill-opacity:1;" d="M 290.835938 184.304688 C 291.214844 185.40625 292.261719 186.136719 293.425781 186.117188 L 304.535156 185.832031 C 305.710938 185.808594 306.734375 185.015625 307.042969 183.886719 L 308.613281 167.136719 C 309.171875 167.386719 309.78125 167.511719 310.390625 167.5 C 312.628906 167.445312 314.398438 165.589844 314.339844 163.363281 C 314.285156 161.132812 312.425781 159.371094 310.1875 159.429688 C 309.945312 159.425781 309.699219 159.453125 309.460938 159.503906 C 308.933594 158.9375 308.191406 158.617188 307.417969 158.625 L 290.328125 159.066406 C 290.1875 159.070312 290.046875 159.085938 289.910156 159.117188 C 289.148438 159.257812 288.492188 159.71875 288.097656 160.378906 C 287.707031 161.042969 287.621094 161.839844 287.863281 162.570312 Z M 308.9375 166 L 310.054688 162.007812 C 310.183594 161.546875 310.1875 161.058594 310.066406 160.597656 C 310.117188 160.597656 310.167969 160.570312 310.222656 160.570312 C 311.816406 160.539062 313.140625 161.800781 313.179688 163.390625 C 313.214844 164.980469 311.953125 166.300781 310.355469 166.34375 C 309.859375 166.359375 309.371094 166.238281 308.9375 166 Z M 308.9375 166 "/>
<path style=" stroke:none;fill-rule:nonzero;fill:rgb(24.705882%,23.921569%,33.72549%);fill-opacity:1;" d="M 289.910156 159.117188 C 290.273438 161.191406 294.367188 162.648438 299.285156 162.394531 C 303.8125 162.1875 307.511719 160.605469 308.191406 158.726562 C 307.941406 158.652344 307.679688 158.617188 307.417969 158.625 L 290.328125 159.066406 C 290.1875 159.070312 290.046875 159.085938 289.910156 159.117188 Z M 289.910156 159.117188 "/>
<path style=" stroke:none;fill-rule:nonzero;fill:rgb(0%,67.45098%,100%);fill-opacity:1;" d="M 300.1875 175.101562 C 300.210938 175.097656 300.234375 175.085938 300.25 175.074219 L 302.664062 173.5 C 302.722656 173.460938 302.757812 173.398438 302.757812 173.328125 C 302.757812 173.257812 302.722656 173.191406 302.664062 173.152344 L 300.15625 171.515625 C 300.09375 171.472656 300.015625 171.46875 299.949219 171.503906 C 299.878906 171.535156 299.835938 171.601562 299.832031 171.675781 C 299.828125 171.753906 299.863281 171.824219 299.925781 171.863281 L 302.167969 173.324219 L 300.023438 174.726562 C 299.9375 174.78125 299.902344 174.890625 299.945312 174.984375 C 299.988281 175.078125 300.089844 175.128906 300.1875 175.101562 Z M 300.1875 175.101562 "/>
<path style=" stroke:none;fill-rule:nonzero;fill:rgb(0%,67.45098%,100%);fill-opacity:1;" d="M 296.378906 175.277344 C 296.460938 175.257812 296.523438 175.1875 296.535156 175.101562 C 296.546875 175.019531 296.503906 174.9375 296.429688 174.894531 L 294.207031 173.625 L 296.355469 172.03125 C 296.449219 171.964844 296.46875 171.832031 296.398438 171.742188 C 296.332031 171.648438 296.199219 171.628906 296.105469 171.695312 L 293.699219 173.476562 C 293.644531 173.519531 293.613281 173.589844 293.617188 173.660156 C 293.621094 173.730469 293.660156 173.792969 293.722656 173.828125 L 296.222656 175.257812 C 296.269531 175.28125 296.324219 175.289062 296.378906 175.277344 Z M 296.378906 175.277344 "/>
<path style=" stroke:none;fill-rule:nonzero;fill:rgb(0%,67.45098%,100%);fill-opacity:1;" d="M 299.949219 176.480469 C 299.96875 176.476562 299.988281 176.46875 300.007812 176.457031 C 300.054688 176.429688 300.085938 176.382812 300.101562 176.328125 C 300.113281 176.273438 300.105469 176.21875 300.078125 176.167969 L 296.65625 170.566406 C 296.597656 170.46875 296.46875 170.4375 296.367188 170.496094 C 296.269531 170.558594 296.238281 170.6875 296.296875 170.785156 L 299.71875 176.386719 C 299.765625 176.464844 299.859375 176.503906 299.949219 176.480469 Z M 299.949219 176.480469 "/>
<path style=" stroke:none;fill-rule:nonzero;fill:rgb(0%,67.45098%,100%);fill-opacity:1;" d="M 89.167969 108.980469 L 107.695312 108.980469 C 108.453125 108.980469 109.066406 109.59375 109.066406 110.347656 L 109.066406 112.148438 C 109.066406 112.902344 108.453125 113.511719 107.695312 113.511719 L 89.167969 113.511719 C 88.410156 113.511719 87.796875 112.902344 87.796875 112.148438 L 87.796875 110.347656 C 87.796875 109.59375 88.410156 108.980469 89.167969 108.980469 Z M 89.167969 108.980469 "/>
<path style=" stroke:none;fill-rule:nonzero;fill:rgb(90.196078%,90.196078%,90.196078%);fill-opacity:1;" d="M 78.367188 118.046875 L 118.496094 118.046875 C 119.253906 118.046875 119.867188 118.65625 119.867188 119.410156 L 119.867188 121.214844 C 119.867188 121.964844 119.253906 122.578125 118.496094 122.578125 L 78.367188 122.578125 C 77.609375 122.578125 76.996094 121.964844 76.996094 121.214844 L 76.996094 119.410156 C 76.996094 118.65625 77.609375 118.046875 78.367188 118.046875 Z M 78.367188 118.046875 "/>
<path style=" stroke:none;fill-rule:nonzero;fill:rgb(90.196078%,90.196078%,90.196078%);fill-opacity:1;" d="M 78.367188 127.109375 L 118.496094 127.109375 C 119.253906 127.109375 119.867188 127.71875 119.867188 128.472656 L 119.867188 130.277344 C 119.867188 131.03125 119.253906 131.640625 118.496094 131.640625 L 78.367188 131.640625 C 77.609375 131.640625 76.996094 131.03125 76.996094 130.277344 L 76.996094 128.472656 C 76.996094 127.71875 77.609375 127.109375 78.367188 127.109375 Z M 78.367188 127.109375 "/>
<path style=" stroke:none;fill-rule:nonzero;fill:rgb(24.705882%,23.921569%,33.72549%);fill-opacity:1;" d="M 121.898438 157.457031 L 121.988281 157.746094 L 121.996094 157.753906 L 124.730469 166.042969 L 127.878906 175.59375 L 133.800781 193.546875 L 133.859375 196.332031 L 133.859375 196.34375 L 134.296875 218.773438 L 133.078125 221.816406 L 134.449219 226.800781 C 134.449219 226.800781 133.820312 219.265625 130.433594 223.59375 C 128.515625 226.050781 126.269531 228.570312 124.429688 230.929688 C 127.113281 232.011719 129.839844 232.988281 132.609375 233.863281 C 133.207031 234.054688 133.808594 234.238281 134.414062 234.417969 C 134.542969 234.457031 134.671875 234.492188 134.800781 234.53125 C 143.980469 237.238281 153.472656 238.757812 163.042969 239.054688 C 163.539062 239.070312 164.027344 239.078125 164.5 239.089844 C 164.667969 239.09375 164.832031 239.097656 164.992188 239.097656 C 165.527344 239.101562 166.058594 239.109375 166.59375 239.109375 C 167.675781 239.109375 168.753906 239.09375 169.824219 239.058594 C 177.753906 238.835938 185.640625 237.773438 193.34375 235.890625 C 193.292969 232.71875 193.148438 229.015625 192.941406 225.0625 C 192.847656 223.121094 190.699219 221.019531 190.570312 218.988281 C 190.480469 217.464844 192.40625 216.027344 192.304688 214.480469 C 191.65625 204.941406 190.84375 208.601562 190.238281 201.847656 C 190.175781 201.1875 190.121094 200.550781 190.066406 199.945312 C 189.679688 195.609375 189.410156 192.898438 189.410156 192.898438 L 191.984375 176.734375 L 196.027344 151.355469 L 195.714844 150.847656 L 195.367188 150.675781 L 174.046875 140.160156 L 172.890625 137.207031 C 172.199219 135.464844 170.515625 134.316406 168.636719 134.300781 L 154.59375 134.246094 C 153.113281 134.238281 151.722656 134.945312 150.859375 136.136719 L 147.054688 141.386719 Z M 121.898438 157.457031 "/>
<path style=" stroke:none;fill-rule:nonzero;fill:rgb(24.705882%,23.921569%,33.72549%);fill-opacity:1;" d="M 137.039062 189.550781 L 133.859375 196.332031 L 131.6875 200.96875 L 127.949219 220.457031 L 126.078125 222.433594 L 124.476562 215.433594 L 107.707031 219.144531 C 107.15625 216.097656 107.558594 219.246094 107.21875 215.90625 C 107.316406 215.808594 107.414062 215.714844 107.515625 215.617188 C 107.785156 215.371094 108.007812 215.136719 108.003906 214.914062 C 107.8125 203.386719 108.386719 183.773438 113.179688 171.890625 C 113.929688 169.949219 114.917969 168.113281 116.125 166.414062 C 116.222656 166.285156 116.3125 166.15625 116.402344 166.027344 C 118.613281 162.945312 120.011719 159.910156 121.988281 157.75 L 121.988281 157.746094 C 122.003906 157.734375 122.015625 157.722656 122.023438 157.710938 C 122.03125 157.707031 122.039062 157.703125 122.042969 157.695312 L 135.648438 150.507812 L 136.230469 166.847656 L 136.644531 178.59375 Z M 137.039062 189.550781 "/>
<path style=" stroke:none;fill-rule:nonzero;fill:rgb(24.705882%,23.921569%,33.72549%);fill-opacity:1;" d="M 186.09375 191.476562 L 190.066406 199.949219 L 191.453125 202.898438 L 195.1875 222.386719 L 197.050781 224.359375 L 198.65625 217.359375 L 199.410156 217.207031 L 213.023438 214.398438 L 216.988281 226.953125 C 218.832031 223.890625 218.261719 219.960938 215.621094 217.546875 C 215.351562 217.304688 215.125 217.066406 215.132812 216.839844 C 215.355469 203.285156 214.523438 178.53125 207.011719 168.34375 C 204.625 165.113281 203.191406 161.890625 201.109375 159.640625 C 201.101562 159.636719 201.101562 159.628906 201.09375 159.628906 L 196.027344 151.355469 L 195.714844 150.847656 L 195.367188 150.675781 Z M 186.09375 191.476562 "/>
<path style=" stroke:none;fill-rule:nonzero;fill:rgb(100%,71.372549%,71.372549%);fill-opacity:1;" d="M 180.707031 111.644531 C 180.707031 121.925781 172.339844 130.261719 162.019531 130.261719 C 151.703125 130.261719 143.335938 121.925781 143.335938 111.644531 C 143.335938 101.363281 151.703125 93.027344 162.019531 93.027344 C 172.339844 93.027344 180.707031 101.363281 180.707031 111.644531 Z M 180.707031 111.644531 "/>
<path style=" stroke:none;fill-rule:nonzero;fill:rgb(18.431373%,18.039216%,25.490196%);fill-opacity:1;" d="M 187.273438 98.640625 C 186.980469 98.328125 186.574219 98.148438 186.148438 98.144531 L 186.429688 97.367188 C 186.613281 96.867188 186.515625 96.308594 186.171875 95.902344 C 185.828125 95.492188 185.292969 95.304688 184.765625 95.402344 L 183.746094 95.597656 L 183.839844 94.917969 C 183.914062 94.402344 183.710938 93.882812 183.304688 93.554688 C 182.898438 93.230469 182.347656 93.140625 181.855469 93.320312 C 181.414062 93.496094 180.914062 93.460938 180.5 93.226562 C 180.082031 92.996094 179.789062 92.597656 179.695312 92.136719 L 179.335938 90.421875 L 179.300781 90.328125 C 177.5625 87.445312 174.226562 85.347656 170.140625 84.582031 C 166.507812 83.890625 162.777344 84.242188 159.183594 84.570312 C 157.757812 84.707031 156.148438 84.855469 154.808594 85.675781 C 153.667969 86.378906 152.703125 87.78125 152.898438 89.199219 C 149.355469 88.117188 145.558594 90.277344 143.675781 93 C 141.445312 96.242188 141.078125 100.304688 141.019531 103.480469 C 140.859375 110.992188 142.417969 117.136719 145.632812 121.75 C 145.867188 122.085938 145.925781 122.78125 146.390625 123.015625 L 146.296875 122.863281 C 146.816406 123.121094 147.34375 123.539062 147.148438 123.984375 C 146.582031 125.273438 150.339844 128.117188 152.992188 129.058594 C 157.828125 130.777344 164.253906 130.628906 168.773438 130.011719 L 168.933594 128.945312 C 170.566406 128.722656 171.714844 128.300781 172.035156 127.640625 C 172.605469 127.15625 173.09375 126.722656 173.515625 126.320312 L 173.519531 126.316406 C 173.53125 126.308594 173.546875 126.296875 173.554688 126.289062 C 175.597656 124.335938 176.070312 123.226562 176.285156 121.535156 C 176.488281 119.875 176.125 118.191406 175.753906 116.675781 C 183.609375 117.886719 172.65625 108.335938 179.980469 106.488281 C 180.0625 106.460938 180.148438 106.441406 180.234375 106.425781 C 180.449219 106.375 180.664062 106.324219 180.867188 106.265625 C 181.859375 105.996094 182.804688 105.59375 183.6875 105.066406 C 185.730469 103.824219 186.40625 102.179688 187.464844 100.324219 C 187.777344 99.78125 187.699219 99.101562 187.273438 98.640625 Z M 187.273438 98.640625 "/>
<path style=" stroke:none;fill-rule:nonzero;fill:rgb(18.431373%,18.039216%,25.490196%);fill-opacity:1;" d="M 228.101562 192.804688 C 228.097656 193.535156 228.089844 194.558594 228.058594 195.824219 C 228.054688 196 228.050781 196.179688 228.042969 196.363281 C 227.992188 198.691406 227.9375 200.640625 227.847656 202.808594 C 227.84375 202.960938 227.839844 203.105469 227.832031 203.257812 C 227.714844 206.28125 227.527344 209.804688 227.210938 215.382812 C 226.617188 225.6875 225.585938 216.800781 224.550781 220.414062 C 224.5 220.59375 224.445312 220.804688 224.398438 221.058594 C 224.238281 221.964844 223.976562 222.855469 223.609375 223.703125 C 223.058594 224.027344 222.492188 224.339844 221.933594 224.65625 C 220.347656 225.535156 218.730469 226.382812 217.105469 227.191406 C 216.191406 227.640625 215.273438 228.085938 214.351562 228.511719 C 214.203125 228.578125 214.0625 228.644531 213.917969 228.707031 C 209.195312 230.882812 204.324219 232.734375 199.347656 234.246094 C 198.375 234.539062 197.40625 234.824219 196.425781 235.085938 C 195.402344 235.371094 194.378906 235.640625 193.34375 235.890625 C 185.636719 237.773438 177.753906 238.839844 169.824219 239.0625 C 168.753906 239.09375 167.675781 239.105469 166.59375 239.105469 C 166.058594 239.105469 165.527344 239.101562 164.992188 239.097656 C 164.828125 239.097656 164.664062 239.09375 164.503906 239.089844 C 164.027344 239.078125 163.539062 239.070312 163.042969 239.058594 C 153.472656 238.757812 143.980469 237.238281 134.800781 234.53125 L 134.410156 234.417969 C 133.808594 234.234375 133.207031 234.054688 132.609375 233.863281 C 129.839844 232.988281 127.113281 232.011719 124.429688 230.929688 C 122.378906 230.105469 120.351562 229.222656 118.347656 228.28125 C 118.328125 228.277344 118.3125 228.269531 118.296875 228.257812 C 117.878906 228.0625 117.453125 227.863281 117.035156 227.660156 C 116.980469 227.628906 116.921875 227.601562 116.863281 227.570312 C 115.300781 226.808594 113.753906 226.015625 112.222656 225.179688 C 110.933594 222.234375 109.125 221.671875 108 219.082031 C 107.671875 218.3125 107.4375 217.507812 107.296875 216.683594 C 107.296875 216.675781 107.289062 216.664062 107.289062 216.652344 C 107.40625 218.207031 106.792969 213.894531 107.285156 216.636719 C 107.28125 216.585938 107.277344 216.53125 107.273438 216.46875 C 107.261719 216.320312 107.246094 216.136719 107.21875 215.90625 C 105.78125 201.910156 105.875 185.910156 105.25 172.722656 C 105.207031 171.871094 105.164062 171.054688 105.117188 170.273438 C 105.105469 170.015625 105.089844 169.757812 105.074219 169.507812 C 105.101562 169.433594 105.136719 169.355469 105.171875 169.277344 C 105.179688 169.257812 105.191406 169.238281 105.203125 169.214844 C 105.214844 169.191406 105.230469 169.164062 105.246094 169.140625 C 105.253906 169.128906 105.265625 169.113281 105.273438 169.097656 C 105.28125 169.085938 105.285156 169.070312 105.292969 169.058594 C 105.332031 169 105.375 168.9375 105.421875 168.878906 C 105.441406 168.851562 105.457031 168.832031 105.480469 168.8125 C 105.492188 168.789062 105.511719 168.769531 105.53125 168.753906 C 105.542969 168.734375 105.558594 168.714844 105.574219 168.699219 C 105.59375 168.683594 105.609375 168.660156 105.628906 168.640625 C 105.640625 168.625 105.652344 168.617188 105.664062 168.605469 C 105.695312 168.570312 105.734375 168.535156 105.773438 168.503906 C 105.921875 168.363281 106.082031 168.238281 106.25 168.125 C 106.308594 168.089844 106.371094 168.050781 106.429688 168.007812 C 106.855469 167.757812 107.296875 167.542969 107.761719 167.375 C 107.917969 167.316406 108.078125 167.261719 108.25 167.203125 C 108.3125 167.1875 108.371094 167.164062 108.433594 167.144531 C 108.527344 167.113281 108.621094 167.085938 108.714844 167.066406 C 109.195312 166.921875 109.710938 166.800781 110.269531 166.6875 C 110.335938 166.675781 110.40625 166.664062 110.476562 166.648438 C 110.578125 166.625 110.683594 166.609375 110.789062 166.59375 C 110.929688 166.566406 111.078125 166.542969 111.222656 166.515625 C 112.46875 166.320312 113.882812 166.175781 115.441406 166.078125 C 115.589844 166.070312 115.734375 166.0625 115.882812 166.054688 C 116.054688 166.046875 116.226562 166.035156 116.402344 166.027344 C 116.550781 166.019531 116.699219 166.015625 116.851562 166.011719 C 116.996094 166.003906 117.148438 166 117.304688 165.996094 C 117.726562 165.984375 118.164062 165.96875 118.609375 165.960938 C 119.875 165.9375 121.207031 165.945312 122.609375 165.972656 C 123.257812 165.992188 123.921875 166.007812 124.601562 166.035156 C 124.644531 166.035156 124.6875 166.039062 124.730469 166.039062 C 125.320312 166.0625 125.917969 166.085938 126.527344 166.121094 C 126.957031 166.140625 127.386719 166.164062 127.820312 166.1875 C 128.226562 166.210938 128.636719 166.238281 129.054688 166.265625 C 129.375 166.285156 129.699219 166.308594 130.027344 166.328125 C 130.300781 166.351562 130.578125 166.371094 130.855469 166.386719 L 131.234375 166.414062 C 131.4375 166.429688 131.644531 166.441406 131.855469 166.464844 C 132.316406 166.5 132.777344 166.539062 133.246094 166.574219 C 133.710938 166.617188 134.1875 166.660156 134.660156 166.699219 C 135.132812 166.742188 135.609375 166.789062 136.089844 166.835938 C 136.140625 166.839844 136.1875 166.84375 136.230469 166.847656 C 136.667969 166.894531 137.105469 166.933594 137.542969 166.980469 C 137.644531 166.988281 137.75 166.996094 137.851562 167.011719 C 138.269531 167.050781 138.699219 167.101562 139.121094 167.144531 C 139.25 167.160156 139.382812 167.175781 139.511719 167.1875 C 139.84375 167.222656 140.171875 167.253906 140.503906 167.292969 C 140.945312 167.34375 141.394531 167.390625 141.828125 167.449219 C 142.167969 167.488281 142.507812 167.523438 142.847656 167.566406 C 143.382812 167.628906 143.921875 167.695312 144.464844 167.765625 C 144.667969 167.792969 144.875 167.816406 145.078125 167.847656 C 146.621094 168.039062 148.183594 168.25 149.765625 168.472656 C 152.167969 168.8125 154.609375 169.179688 157.066406 169.574219 C 159.527344 169.972656 162.003906 170.390625 164.492188 170.832031 C 165.121094 170.945312 165.75 171.058594 166.382812 171.175781 C 166.667969 171.230469 166.953125 171.285156 167.238281 171.339844 C 167.726562 171.425781 168.210938 171.519531 168.699219 171.609375 C 169.1875 171.703125 169.671875 171.792969 170.160156 171.890625 C 170.738281 172.003906 171.320312 172.117188 171.898438 172.230469 C 175.710938 172.980469 179.5 173.785156 183.199219 174.625 C 183.808594 174.761719 184.414062 174.902344 185.019531 175.042969 C 186.226562 175.320312 187.421875 175.605469 188.609375 175.894531 C 188.933594 175.96875 189.257812 176.046875 189.582031 176.128906 C 190.386719 176.328125 191.191406 176.527344 191.984375 176.734375 L 192.121094 176.769531 C 192.703125 176.914062 193.273438 177.058594 193.84375 177.210938 C 195.191406 177.5625 196.515625 177.914062 197.816406 178.273438 C 198.679688 178.511719 199.535156 178.753906 200.378906 178.996094 C 201.640625 179.363281 202.878906 179.730469 204.082031 180.101562 C 204.378906 180.191406 204.675781 180.285156 204.96875 180.371094 C 205.851562 180.644531 206.71875 180.921875 207.5625 181.195312 C 208.230469 181.414062 208.886719 181.632812 209.53125 181.855469 C 210.179688 182.078125 210.8125 182.296875 211.429688 182.519531 C 211.828125 182.664062 212.222656 182.8125 212.617188 182.953125 C 213.183594 183.164062 213.742188 183.371094 214.285156 183.582031 C 214.453125 183.644531 214.617188 183.710938 214.78125 183.773438 C 214.886719 183.820312 214.988281 183.855469 215.089844 183.898438 C 215.285156 183.976562 215.484375 184.054688 215.679688 184.132812 C 215.875 184.207031 216.070312 184.289062 216.261719 184.371094 C 216.449219 184.445312 216.644531 184.527344 216.828125 184.605469 C 217.015625 184.679688 217.203125 184.761719 217.386719 184.84375 C 217.539062 184.90625 217.691406 184.972656 217.839844 185.039062 C 218.136719 185.167969 218.433594 185.300781 218.722656 185.433594 C 218.867188 185.5 219.007812 185.5625 219.152344 185.628906 L 219.476562 185.78125 C 219.523438 185.804688 219.570312 185.824219 219.617188 185.847656 C 219.722656 185.894531 219.832031 185.949219 219.933594 186 C 220.179688 186.113281 220.417969 186.234375 220.652344 186.347656 C 220.964844 186.507812 221.273438 186.664062 221.566406 186.820312 C 221.863281 186.980469 222.152344 187.136719 222.429688 187.292969 C 222.476562 187.316406 222.519531 187.34375 222.5625 187.367188 C 222.628906 187.402344 222.691406 187.4375 222.753906 187.472656 C 222.96875 187.59375 223.171875 187.71875 223.378906 187.839844 C 223.78125 188.085938 224.160156 188.328125 224.519531 188.570312 C 224.597656 188.625 224.671875 188.679688 224.753906 188.730469 C 225.015625 188.917969 225.269531 189.101562 225.503906 189.289062 C 225.503906 189.292969 225.503906 189.292969 225.507812 189.292969 C 225.585938 189.351562 225.664062 189.414062 225.738281 189.472656 C 225.800781 189.53125 225.867188 189.582031 225.929688 189.640625 C 226.148438 189.828125 226.351562 190.007812 226.535156 190.191406 C 226.597656 190.25 226.65625 190.308594 226.710938 190.371094 C 226.734375 190.390625 226.757812 190.414062 226.777344 190.4375 C 226.863281 190.523438 226.9375 190.605469 227.007812 190.6875 C 227.019531 190.699219 227.03125 190.714844 227.039062 190.726562 C 227.140625 190.84375 227.230469 190.960938 227.320312 191.078125 C 227.359375 191.136719 227.40625 191.195312 227.445312 191.253906 C 227.496094 191.324219 227.546875 191.398438 227.585938 191.46875 C 227.625 191.527344 227.660156 191.589844 227.691406 191.648438 C 227.78125 191.800781 227.855469 191.957031 227.917969 192.121094 C 227.964844 192.234375 228.003906 192.347656 228.03125 192.464844 C 228.0625 192.574219 228.085938 192.6875 228.101562 192.804688 Z M 228.101562 192.804688 "/>
<use xlink:href="#surface5" mask="url(#mask0)"/>
</g>
</svg>
